<?xml version="1.0" encoding="utf-8"?>
<!-- Generator: Adobe Illustrator 21.0.0, SVG Export Plug-In . SVG Version: 6.00 Build 0)  -->
<svg version="1.1" id="图层_1" xmlns="http://www.w3.org/2000/svg" xmlns:xlink="http://www.w3.org/1999/xlink" x="0px" y="0px"
	 viewBox="0 0 330 90" style="enable-background:new 0 0 330 90;" xml:space="preserve">
<style type="text/css">
	.st0{fill:#777777;}
</style>
<g>
	<path class="st0" d="M43.8,44.7c2.8-2.6,4.2-5.9,4.2-9.9c0-3.8-1.4-7.1-4.1-9.7c-2.7-2.7-6-4.1-9.7-4.1H13.9
		c-0.9,0-1.7,0.3-2.3,0.9s-1,1.4-1,2.3v43.4c0,0.9,0.3,1.7,1,2.3c0.6,0.6,1.4,0.9,2.3,0.9h21.9c4,0,7.4-1.4,10.2-4.2
		c2.8-2.8,4.2-6.3,4.2-10.2c0-2.8-0.8-5.4-2.3-7.7C46.8,47.2,45.5,45.8,43.8,44.7z M17.1,42.1V27.5h17.2c2,0,3.7,0.7,5.2,2.1
		c1.5,1.5,2.2,3.2,2.2,5.2S41,38.5,39.5,40c-1.4,1.5-3.1,2.2-5.1,2.2C34.2,42.1,17.1,42.1,17.1,42.1z M43.7,56.5
		c0,2.2-0.8,4-2.3,5.6c-1.4,1.4-3,2.2-4.9,2.3H17.2V48.6h18.7c2.2,0,4,0.8,5.6,2.3C42.9,52.5,43.7,54.3,43.7,56.5z"/>
	<path class="st0" d="M146.3,19.1h-6.7V52c0,5.2,1.9,9.7,5.6,13.4c3.7,3.7,8.2,5.6,13.4,5.6h1.4v-6.7h-1.4c-3.4,0-6.3-1.2-8.7-3.6
		c-2.4-2.4-3.6-5.2-3.6-8.7V39.7H160V33h-13.7V19.1L146.3,19.1z"/>
	<g>
		<path class="st0" d="M197.8,27c5.6,0,10.1,2.5,13.5,7.3l1.1,1.7l5.9-4.7l-1.1-1.6c-4.8-7-11.4-10.5-19.4-10.5
			c-6.7,0-12.4,2.6-17.1,7.6c-4.7,5-7.1,11.2-7.1,18.3s2.4,13.3,7.1,18.4c4.7,5,10.5,7.6,17.1,7.6c8,0,14.5-3.5,19.4-10.5l1.1-1.6
			l-5.9-4.7l-1.2,1.7c-3.4,4.9-7.9,7.3-13.5,7.3c-4.6,0-8.6-1.8-11.9-5.3c-3.3-3.5-4.9-7.8-4.9-12.7s1.7-9.2,4.9-12.7
			C189.1,28.8,193.1,27,197.8,27z"/>
		<path class="st0" d="M246.4,19.1h-17c-1,0-1.9,0.4-2.6,1.2c-0.7,0.8-1.1,1.7-1.1,2.8v44c0,1.1,0.4,2.1,1.1,2.7
			c0.7,0.8,1.6,1.2,2.6,1.2h17c6.7,0,12.4-2.6,17.1-7.6s7.1-11.2,7.1-18.3s-2.4-13.3-7.1-18.3C258.8,21.6,253.1,19.1,246.4,19.1z
			 M263.3,45c0,5-1.7,9.2-4.9,12.7c-3.4,3.6-7.4,5.3-12,5.3h-13.3V27h13.3c4.6,0,8.6,1.8,11.9,5.3C261.6,35.8,263.3,40.1,263.3,45z"
			/>
		<path class="st0" d="M312,19.1v36.6l-26.1-35.1c-0.9-1.3-2.1-1.6-2.8-1.6c-0.4,0-0.8,0.1-1.3,0.2c-1.6,0.6-2.5,2-2.5,3.7V71h7.4
			V34.4l26.1,35.1c0.7,1,1.8,1.5,2.9,1.5c0.4,0,0.8-0.1,1.2-0.2c1.5-0.6,2.4-2,2.4-3.7v-48C319.4,19.1,312,19.1,312,19.1z"/>
	</g>
	<path class="st0" d="M126.5,41.1c-3.3-3.3-7.7-5.1-12.3-5.1s-9,1.8-12.3,5.1l-5.6,5.6l5,5l5.6-5.6c2-2,4.6-3,7.3-3
		c2.8,0,5.4,1.1,7.3,3c4,4,4,10.6,0,14.7c-2,2-4.6,3-7.3,3c-2.8,0-5.4-1.1-7.3-3l-6.2-6.2l-1.2-1.2l0,0L87.3,41.1
		C84,37.8,79.6,36,75,36s-9,1.8-12.3,5.1c-6.8,6.8-6.8,17.8,0,24.6C66,69,70.3,70.8,75,70.8c4.6,0,9-1.8,12.3-5.1l0.3-0.3l2.8,2.8
		v-5.6v-2.1v-2.9h-2.9h-2.1h-5.6l2.8,2.8l-0.3,0.3c-2,2-4.6,3-7.3,3c-2.8,0-5.4-1.1-7.3-3c-4-4-4-10.6,0-14.7c2-2,4.6-3,7.3-3
		c2.8,0,5.4,1.1,7.3,3l6.2,6.2l1.2,1.2l0,0L102,65.7c3.3,3.3,7.7,5.1,12.3,5.1s9-1.8,12.3-5.1C133.3,58.9,133.3,47.9,126.5,41.1z"/>
</g>
</svg>
