<?xml version="1.0" encoding="utf-8"?>
<!-- Generator: Adobe Illustrator 22.0.0, SVG Export Plug-In . SVG Version: 6.00 Build 0)  -->
<svg version="1.1" id="Layer_2_1_" xmlns="http://www.w3.org/2000/svg" xmlns:xlink="http://www.w3.org/1999/xlink" x="0px" y="0px"
	 viewBox="0 0 101 33.4" style="enable-background:new 0 0 101 33.4;" xml:space="preserve">
<style type="text/css">
	.st0{fill:#FFFFFF;}
	.st1{fill:#777777;}
	.st2{fill:#999999;}
</style>
<path class="st0" d="M94.4,10.7l-5.6-1.3l-1-0.4L62.2,9.2v12.4l32.3,0.1L94.4,10.7z"/>
<path class="st1" d="M83.9,20.5c0.3-1,0.2-2-0.3-2.6s-1.2-1-2.1-1.1l-17.4-0.2c-0.1,0-0.2-0.1-0.3-0.1c-0.1-0.1-0.1-0.2,0-0.3
	c0.1-0.2,0.2-0.3,0.4-0.3l17.5-0.2c2.1-0.1,4.3-1.8,5.1-3.8l1-2.6c0-0.1,0.1-0.2,0-0.3c-1.1-5.1-5.7-8.9-11.1-8.9
	c-5,0-9.3,3.2-10.8,7.7c-1-0.7-2.2-1.1-3.6-1C59.9,7,58,9,57.7,11.4c-0.1,0.6,0,1.2,0.1,1.8c-3.9,0.1-7.1,3.3-7.1,7.3
	c0,0.4,0,0.7,0.1,1.1c0,0.2,0.2,0.3,0.3,0.3h32.1c0.2,0,0.4-0.1,0.4-0.3L83.9,20.5z"/>
<path class="st2" d="M89.4,9.3h-0.5c-0.1,0-0.2,0.1-0.3,0.2l-0.7,2.4c-0.3,1-0.2,2,0.3,2.6s1.2,1,2.1,1.1l3.7,0.2
	c0.1,0,0.2,0.1,0.3,0.1c0.1,0.1,0.1,0.2,0,0.3c-0.1,0.2-0.2,0.3-0.4,0.3l-3.8,0.2c-2.1,0.1-4.3,1.8-5.1,3.8l-0.2,0.9
	c-0.1,0.1,0,0.3,0.2,0.3h13.2c0.2,0,0.3-0.1,0.3-0.3c0.2-0.8,0.4-1.7,0.4-2.6C98.9,13.6,94.6,9.3,89.4,9.3"/>
<path class="st1" d="M100.3,27.3c-0.5,0-0.9-0.4-0.9-0.9s0.4-0.9,0.9-0.9s0.9,0.4,0.9,0.9S100.8,27.3,100.3,27.3 M100.3,25.7
	c-0.4,0-0.7,0.3-0.7,0.7c0,0.4,0.3,0.7,0.7,0.7c0.4,0,0.7-0.3,0.7-0.7C100.9,26,100.6,25.7,100.3,25.7 M100.7,26.9h-0.2l-0.2-0.3
	h-0.2v0.3h-0.2V26h0.5c0.2,0,0.3,0.1,0.3,0.3c0,0.1-0.1,0.2-0.2,0.3L100.7,26.9L100.7,26.9z M100.3,26.4c0.1,0,0.1,0,0.1-0.1
	s-0.1-0.1-0.1-0.1H100v0.3L100.3,26.4L100.3,26.4z M10.7,25.5h2.2v6h3.8v1.9h-6L10.7,25.5z M19,29.4c0-2.3,1.8-4.1,4.3-4.1
	s4.2,1.8,4.2,4.1s-1.8,4.1-4.3,4.1C20.8,33.5,19,31.7,19,29.4 M25.3,29.4c0-1.2-0.8-2.2-2-2.2s-2,1-2,2.1s0.8,2.1,2,2.1
	C24.5,31.6,25.3,30.6,25.3,29.4 M30.2,29.9v-4.4h2.2v4.4c0,1.1,0.6,1.7,1.5,1.7s1.5-0.5,1.5-1.6v-4.5h2.2v4.4c0,2.6-1.5,3.7-3.7,3.7
	C31.6,33.5,30.2,32.4,30.2,29.9 M40.8,25.5h3.1c2.8,0,4.5,1.6,4.5,3.9s-1.7,4-4.5,4h-3L40.8,25.5L40.8,25.5z M43.9,31.4
	c1.3,0,2.2-0.7,2.2-2s-0.9-2-2.2-2H43v4H43.9z M51.5,25.5h6.3v1.9h-4.1v1.3h3.7v1.8h-3.7v2.9h-2.2L51.5,25.5z M60.9,25.5h2.2v6h3.8
	v1.9h-6V25.5z M72.6,25.4h2.2l3.4,8h-2.4L75.3,32h-3.1l-0.6,1.4h-2.3C69.3,33.4,72.7,25.4,72.6,25.4z M74.6,30.3l-0.9-2.2l-0.9,2.2
	H74.6z M81,25.5h3.7c1.2,0,2,0.3,2.6,0.9c0.5,0.5,0.7,1.1,0.7,1.8c0,1.2-0.6,2-1.6,2.4l1.9,2.8h-2.5L84.3,31h-1v2.4h-2.2
	C81.1,33.4,81.1,25.5,81,25.5z M84.6,29.3c0.7,0,1.2-0.4,1.2-0.9c0-0.6-0.5-0.9-1.2-0.9h-1.4v1.9h1.4V29.3z M91.1,25.5h6.4v1.8h-4.2
	v1.2h3.8v1.8h-3.8v1.2h4.3v1.9h-6.5L91.1,25.5z M5.9,30.4c-0.3,0.7-1,1.2-1.8,1.2c-1.2,0-2-1-2-2.1s0.8-2.1,2-2.1
	c0.9,0,1.6,0.6,1.9,1.3h2.3c-0.4-1.9-2-3.3-4.2-3.3c-2.4,0-4.3,1.8-4.3,4.1s1.8,4.1,4.2,4.1c2.1,0,3.7-1.4,4.2-3.2H5.9z"/>
</svg>
