<?xml version="1.0" encoding="utf-8"?>
<!-- Generator: Adobe Illustrator 21.0.0, SVG Export Plug-In . SVG Version: 6.00 Build 0)  -->
<svg version="1.1" id="Layer_1" xmlns="http://www.w3.org/2000/svg" xmlns:xlink="http://www.w3.org/1999/xlink" x="0px" y="0px"
	 viewBox="0 0 1168.6 187.9" style="enable-background:new 0 0 1168.6 187.9;" xml:space="preserve">
<style type="text/css">
	.st0{fill:#787878;}
</style>
<path class="st0" d="M49.6,135.2h13.2V52.5H49.6V41h73.3v25h-13V53.9H77.8V89h36.6v12.3H77.8v33.9h14.4v11.7H49.6V135.2z"/>
<path class="st0" d="M172.3,69.2c22.6,0,40.9,16.6,40.9,39.6c0,23.1-18.3,39.9-40.9,39.9c-22.6,0-40.9-16.8-40.9-39.9
	C131.3,85.8,149.6,69.2,172.3,69.2z M172.3,136.1c14.2,0,26.1-11.4,26.1-27.3c0-15.7-11.8-27-26.1-27c-14.4,0-26.1,11.2-26.1,27
	C146.2,124.7,157.9,136.1,172.3,136.1z"/>
<path class="st0" d="M225.8,135.6h11.8V85.5c0-2.3-1.2-3.3-3.3-3.3h-9.3V71h17.1c6.6,0,9.6,2.9,9.6,8.4v3.9c0,2.4-0.4,4.4-0.4,4.4
	h0.3c1.5-4,10.3-18.4,29.5-18.4c17.4,0,25.2,9.7,25.2,29.1v37.3h12v11.3h-26.5v-45.3c0-10.6-2.1-19-14.2-19
	c-15.3,0-25.3,13.9-25.3,29.1v24h12v11.3h-38.4V135.6z"/>
<path class="st0" d="M336.4,82.2h-12.7V71h13V50.1h14.2V71h18.1v11.2h-18.1v35.5c0,15.4,10.5,17.4,16.2,17.4c2.1,0,3.4-0.2,3.4-0.2
	v12.1c0,0-2.1,0.3-5.2,0.3c-9.6,0-28.9-3-28.9-28.3V82.2z"/>
<path class="st0" d="M414.1,135.2h10.2L458,41H475l33.7,94.2h10.2v11.7h-36.7v-11.7h11.2l-8.2-23.5h-37.5l-8.2,23.5h11.4v11.7h-36.7
	V135.2z M481.4,99.6l-12.9-36.7c-1.5-4.3-1.8-8.1-1.8-8.1h-0.5c0,0-0.4,3.8-1.8,8.1l-13,36.7H481.4z"/>
<path class="st0" d="M516.5,71h33.9v11.2h-10.2l12.9,44.1c0.9,3.1,1.2,7,1.2,7h0.4c0,0,0.3-3.9,1.2-7l16.6-55.2h13.2l16.6,55.2
	c0.9,3.1,1.2,7,1.2,7h0.5c0,0,0.3-3.9,1.2-7l13-44.1H608V71h33.9v11.2h-9.4L613,146.9h-16.2l-16-50.7c-0.9-3.5-1.3-7.2-1.3-7.2h-0.3
	c0,0-0.5,3.7-1.4,7.2l-16,50.7h-16.2L526,82.2h-9.4V71z"/>
<path class="st0" d="M687.5,69.2c21.6,0,32.8,15.9,32.8,35.5c0,2-0.5,5.5-0.5,5.5h-55.5c0.9,16.8,12.8,25.8,26.2,25.8
	c13.2,0,22.6-8.5,22.6-8.5l6,10.7c0,0-11.4,10.5-29.5,10.5c-23.8,0-40.2-17.2-40.2-39.7C649.6,84.8,665.9,69.2,687.5,69.2z
	 M705.4,101c-0.5-13.3-8.5-20.2-18.1-20.2c-11.1,0-20.1,7.5-22.2,20.2H705.4z"/>
<path class="st0" d="M732.7,122.4h12.7v5c0,6.5,9,9.4,17.4,9.4c8.5,0,15.3-3.5,15.3-9.7c0-7.7-8.4-10-18.9-13.8
	c-11.3-4.2-23.7-9.3-23.7-23.1c0-15,14.8-21,28-21c10.6,0,26.2,4.2,26.2,15.3v9.1h-12.8v-4.9c0-4.6-6-7.8-13.3-7.8
	c-7.2,0-13.5,3-13.5,9.1c0,7.2,8.4,10.2,17.5,13.3c11.7,3.9,25,8.8,25,22.9c0,14.4-13.2,22.3-30.4,22.3c-13.8,0-29.7-6.1-29.7-18.1
	V122.4z"/>
<path class="st0" d="M845.8,69.2c22.6,0,40.9,16.6,40.9,39.6c0,23.1-18.3,39.9-40.9,39.9s-40.9-16.8-40.9-39.9
	C804.8,85.8,823.1,69.2,845.8,69.2z M845.8,136.1c14.2,0,26.1-11.4,26.1-27.3c0-15.7-11.8-27-26.1-27c-14.4,0-26.1,11.2-26.1,27
	C819.7,124.7,831.4,136.1,845.8,136.1z"/>
<path class="st0" d="M899.3,135.6h11.8V85.4c0-2.1-1.2-3.1-3.3-3.1h-9.3V71h17.1c6.5,0,9.6,2.9,9.6,8.4v3.9c0,2.4-0.5,4.4-0.5,4.4
	h0.3c3.7-9,14.7-18.4,27-18.4c12.2,0,19.6,5.5,22.2,17.8h0.3c4.2-9.4,14.7-17.8,27.1-17.8c16.8,0,24.7,9.7,24.7,29.1v37.3h12v11.3
	h-26.5v-45.4c0-10.6-1.9-19-13.3-19c-14.3,0-22.3,14.6-22.3,29.5v23.7h11.8v11.3h-26.4v-45.4c0-9.9-1.5-19-13.2-19
	c-14.4,0-22.8,15.3-22.8,30.1v23.1h12v11.3h-38.4V135.6z"/>
<path class="st0" d="M1086.2,69.2c21.6,0,32.8,15.9,32.8,35.5c0,2-0.5,5.5-0.5,5.5h-55.5c0.9,16.8,12.8,25.8,26.2,25.8
	c13.2,0,22.6-8.5,22.6-8.5l6,10.7c0,0-11.4,10.5-29.5,10.5c-23.8,0-40.2-17.2-40.2-39.7C1048.3,84.8,1064.6,69.2,1086.2,69.2z
	 M1104.1,101c-0.5-13.3-8.5-20.2-18.1-20.2c-11.1,0-20.1,7.5-22.2,20.2H1104.1z"/>
</svg>
