<?xml version="1.0" encoding="utf-8"?>
<!-- Generator: Adobe Illustrator 21.0.0, SVG Export Plug-In . SVG Version: 6.00 Build 0)  -->
<svg version="1.1" id="图层_1" xmlns="http://www.w3.org/2000/svg" xmlns:xlink="http://www.w3.org/1999/xlink" x="0px" y="0px"
	 viewBox="0 0 798 202" style="enable-background:new 0 0 798 202;" xml:space="preserve">
<style type="text/css">
	.st0{fill:#999999;}
	.st1{fill:#777777;}
</style>
<g>
	<path class="st0" d="M0.9,98.7h11.8v53.8H0.9V98.7z"/>
	<path class="st0" d="M18.2,113.6h10.2v5.4h0.2c2.7-4.4,7.4-6.5,11.9-6.5c11.4,0,14.2,6.4,14.2,16v24H44v-22c0-6.4-1.8-9.6-6.9-9.6
		c-5.8,0-8.3,3.2-8.3,11.1v20.4H18.2V113.6z"/>
	<path class="st0" d="M61.4,120.7H55v-7.2h6.4v-3c0-6.9,4.3-11.8,13-11.8c1.9,0,3.8,0.2,5.6,0.3v8c-1.3-0.2-2.6-0.2-3.9-0.2
		c-2.9,0-4.1,1.2-4.1,4.4v2.3h7.4v7.2h-7.4v31.8H61.4V120.7z"/>
	<path class="st0" d="M99.3,112.5c12.3,0,20.2,8.1,20.2,20.6c0,12.4-7.9,20.5-20.2,20.5c-12.2,0-20.1-8.1-20.1-20.5
		C79.2,120.7,87.1,112.5,99.3,112.5z M99.3,145.5c7.3,0,9.5-6.2,9.5-12.4s-2.2-12.5-9.5-12.5c-7.2,0-9.4,6.3-9.4,12.5
		S92.1,145.5,99.3,145.5z"/>
	<path class="st0" d="M122.7,113.6h10.2v7.2h0.2c2-4.9,7.1-8.3,12.4-8.3c0.8,0,1.6,0.2,2.3,0.4v9.9c-1-0.2-2.6-0.4-3.8-0.4
		c-7.9,0-10.5,5.6-10.5,12.5v17.6h-10.7V113.6z"/>
	<path class="st0" d="M148.5,113.6h10.1v5.3h0.2c2.8-4,6.8-6.3,11.9-6.3c4.9,0,9.3,1.7,11.4,6.5c2.3-3.4,6.3-6.5,11.8-6.5
		c8.3,0,14.2,3.8,14.2,13.9v26.1h-10.7v-22.1c0-5.2-0.5-9.5-6.6-9.5c-6,0-7.2,5-7.2,9.9v21.7h-10.7v-21.8c0-4.5,0.3-9.7-6.5-9.7
		c-2.1,0-7.2,1.4-7.2,9v22.6h-10.7V113.6z"/>
	<path class="st0" d="M212.3,125.6c0.6-9.9,9.6-13,18.3-13c7.8,0,17.1,1.7,17.1,11.1v20.3c0,3.5,0.4,7.1,1.4,8.7h-10.8
		c-0.4-1.2-0.7-2.5-0.8-3.8c-3.4,3.5-8.3,4.8-13.1,4.8c-7.5,0-13.3-3.7-13.3-11.7c0.2-17.7,26.4-8.2,25.9-16.9
		c0-4.5-3.2-5.3-6.9-5.3c-4.1,0-6.7,1.7-7.1,5.9H212.3z M237,133.5c-1.8,1.6-5.6,1.7-8.9,2.3c-3.3,0.6-6.3,1.8-6.3,5.7
		c0,3.9,3.1,5,6.6,5c8.4,0,8.7-6.6,8.7-9V133.5z"/>
	<path class="st0" d="M265.7,113.6h7.8v7.2h-7.8V140c0,3.6,0.9,4.5,4.5,4.5c1.2,0,2.3-0.1,3.3-0.3v8.4c-1.8,0.3-4.1,0.4-6.3,0.4
		c-6.6,0-12.3-1.4-12.3-9.3v-23h-6.5v-7.2h6.5v-11.7h10.7V113.6z"/>
	<path class="st0" d="M285.9,107.6h-10.7v-8.8h10.7V107.6z M275.2,113.6h10.7v38.9h-10.7V113.6z"/>
	<path class="st0" d="M309.5,112.5c12.3,0,20.2,8.1,20.2,20.6c0,12.4-7.9,20.5-20.2,20.5c-12.2,0-20.1-8.1-20.1-20.5
		C289.4,120.7,297.3,112.5,309.5,112.5z M309.5,145.5c7.3,0,9.5-6.2,9.5-12.4s-2.2-12.5-9.5-12.5c-7.2,0-9.4,6.3-9.4,12.5
		S302.3,145.5,309.5,145.5z"/>
	<path class="st0" d="M332.9,113.6H343v5.4h0.2c2.7-4.4,7.4-6.5,11.9-6.5c11.4,0,14.2,6.4,14.2,16v24h-10.7v-22
		c0-6.4-1.8-9.6-6.9-9.6c-5.8,0-8.3,3.2-8.3,11.1v20.4h-10.7V113.6z"/>
</g>
<g>
	<path class="st1" d="M436.8,108.7h-16.1v-9.9h44.1v9.9h-16.1v43.8h-11.8V108.7z"/>
	<path class="st1" d="M466.5,135.7c0.3,6.9,3.5,9.9,9.6,9.9c4.3,0,7.8-2.6,8.4-5h9.4c-3,9.3-9.4,13.1-18.2,13.1
		c-12.3,0-19.9-8.4-19.9-20.5c0-11.7,8.1-20.6,19.9-20.6c13.3,0,19.7,11.1,18.9,23.1H466.5z M483.9,128.9c-1-5.4-3.3-8.3-8.5-8.3
		c-6.9,0-8.7,5.3-8.9,8.3H483.9z"/>
	<path class="st1" d="M523.6,127.3c-0.7-4.4-3.3-6.7-7.9-6.7c-6.9,0-9.1,6.9-9.1,12.7c0,5.6,2.2,12.3,8.9,12.3c5,0,7.8-3.1,8.5-7.9
		h10.3c-1.4,10.3-8.4,16-18.8,16c-11.8,0-19.7-8.3-19.7-20c0-12.1,7.2-21.1,19.9-21.1c9.2,0,17.7,4.8,18.3,14.8H523.6z"/>
	<path class="st1" d="M536.6,98.7h10.7V119h0.2c2.7-4.4,7.4-6.5,11.4-6.5c11.4,0,14.2,6.4,14.2,16v24h-10.7v-22
		c0-6.4-1.8-9.6-6.9-9.6c-5.8,0-8.3,3.2-8.3,11.1v20.4h-10.7V98.7z"/>
	<path class="st1" d="M577.5,113.6h10.2v5.4h0.2c2.7-4.4,7.4-6.5,11.9-6.5c11.4,0,14.2,6.4,14.2,16v24h-10.7v-22
		c0-6.4-1.8-9.6-6.9-9.6c-5.8,0-8.3,3.2-8.3,11.1v20.4h-10.7V113.6z"/>
	<path class="st1" d="M637.3,112.5c12.3,0,20.2,8.1,20.2,20.6c0,12.4-7.9,20.5-20.2,20.5c-12.2,0-20.1-8.1-20.1-20.5
		C617.2,120.7,625.1,112.5,637.3,112.5z M637.3,145.5c7.3,0,9.5-6.2,9.5-12.4s-2.2-12.5-9.5-12.5c-7.2,0-9.4,6.3-9.4,12.5
		S630.1,145.5,637.3,145.5z"/>
	<path class="st1" d="M661,98.7h10.7v53.8H661V98.7z"/>
	<path class="st1" d="M695.2,112.5c12.3,0,20.2,8.1,20.2,20.6c0,12.4-7.9,20.5-20.2,20.5c-12.2,0-20.1-8.1-20.1-20.5
		C675.1,120.7,683,112.5,695.2,112.5z M695.2,145.5c7.3,0,9.5-6.2,9.5-12.4s-2.2-12.5-9.5-12.5c-7.2,0-9.4,6.3-9.4,12.5
		S688,145.5,695.2,145.5z"/>
	<path class="st1" d="M756,150c0,6.4-2.3,17.3-20.2,17.3c-7.7,0-16.6-3.7-17.2-12.5h10.6c1,4,4.1,5.3,8,5.3c6,0,8.7-4,8.6-9.6v-5.1
		h-0.2c-2.3,4.1-6.9,6-11.7,6c-11.8,0-16.6-8.9-16.6-19.6c0-10.1,5.9-19.3,16.7-19.3c5.1,0,9,1.7,11.6,6.3h0.2v-5.2H756V150z
		 M745.9,132.6c0-6.3-2.2-12-9.1-12c-6,0-8.7,5.3-8.7,11.1c0,5.6,2,11.7,8.7,11.7C742.9,143.3,745.9,138.1,745.9,132.6z"/>
	<path class="st1" d="M780.1,157.4c-2.3,6.3-6.1,8.8-13.4,8.8c-2.2,0-4.4-0.2-6.6-0.4V157c2,0.2,4.1,0.5,6.3,0.4
		c2.8-0.3,4.1-2.5,4.1-4.9c0-0.8-0.2-1.7-0.5-2.4l-13.7-36.5h11.5l8.8,26.7h0.2l8.5-26.7h11.1L780.1,157.4z"/>
</g>
<g>
	<path class="st1" d="M441.4,192.1c0,1.7-0.3,3.2-0.9,4.5c-0.6,1.3-1.5,2.4-2.6,3.3c-1.1,0.9-2.4,1.6-3.9,2.1
		c-1.5,0.5-3.1,0.7-4.8,0.7c-1.2,0-2.3-0.1-3.3-0.3c-1-0.2-1.9-0.5-2.7-0.7s-1.5-0.6-2-0.9c-0.5-0.3-0.9-0.6-1.1-0.8
		c-0.2-0.2-0.4-0.5-0.5-0.8s-0.2-0.8-0.2-1.4c0-0.4,0-0.7,0.1-1c0-0.3,0.1-0.5,0.2-0.7c0.1-0.2,0.2-0.3,0.3-0.3
		c0.1-0.1,0.2-0.1,0.4-0.1c0.3,0,0.6,0.2,1.1,0.5c0.5,0.3,1.1,0.7,1.8,1c0.7,0.4,1.6,0.7,2.7,1c1,0.3,2.2,0.5,3.6,0.5
		c1,0,2-0.1,2.8-0.4c0.9-0.3,1.6-0.7,2.2-1.2c0.6-0.5,1.1-1.1,1.4-1.9c0.3-0.7,0.5-1.6,0.5-2.5c0-1-0.2-1.9-0.7-2.6
		c-0.5-0.7-1.1-1.4-1.8-1.9s-1.6-1-2.6-1.5c-1-0.5-2-0.9-3-1.4c-1-0.5-2-1-3-1.6c-1-0.6-1.8-1.2-2.6-2c-0.8-0.8-1.4-1.7-1.8-2.7
		c-0.5-1-0.7-2.3-0.7-3.8c0-1.5,0.3-2.8,0.8-4c0.5-1.2,1.3-2.2,2.3-3c1-0.8,2.1-1.4,3.5-1.8c1.3-0.4,2.8-0.6,4.3-0.6
		c0.8,0,1.6,0.1,2.4,0.2s1.6,0.3,2.3,0.6c0.7,0.2,1.3,0.5,1.9,0.8c0.6,0.3,0.9,0.5,1.1,0.7c0.2,0.2,0.3,0.3,0.3,0.4
		c0.1,0.1,0.1,0.2,0.1,0.4s0.1,0.3,0.1,0.6s0,0.5,0,0.9c0,0.3,0,0.6,0,0.9c0,0.3-0.1,0.5-0.1,0.7c-0.1,0.2-0.1,0.3-0.2,0.4
		s-0.2,0.1-0.3,0.1c-0.2,0-0.5-0.1-1-0.4c-0.4-0.3-1-0.5-1.6-0.9s-1.4-0.6-2.2-0.9s-1.8-0.4-2.9-0.4c-1,0-1.9,0.1-2.6,0.4
		c-0.7,0.3-1.3,0.6-1.8,1.1s-0.8,1-1.1,1.6c-0.2,0.6-0.4,1.3-0.4,1.9c0,1,0.2,1.9,0.7,2.6s1.1,1.4,1.8,1.9c0.8,0.6,1.6,1.1,2.6,1.5
		c1,0.5,2,0.9,3,1.4c1,0.5,2,1,3,1.6s1.9,1.2,2.6,2s1.4,1.7,1.9,2.7C441.1,189.5,441.4,190.7,441.4,192.1z"/>
	<path class="st1" d="M470.4,187.9c0,0.7-0.2,1.2-0.5,1.5s-0.8,0.5-1.2,0.5h-16.4c0,1.4,0.1,2.6,0.4,3.7c0.3,1.1,0.7,2.1,1.4,2.9
		c0.6,0.8,1.5,1.4,2.5,1.8s2.3,0.6,3.8,0.6c1.2,0,2.2-0.1,3.2-0.3c0.9-0.2,1.7-0.4,2.4-0.7c0.7-0.2,1.2-0.5,1.7-0.7
		c0.4-0.2,0.8-0.3,1-0.3c0.1,0,0.2,0,0.3,0.1c0.1,0.1,0.2,0.2,0.2,0.3s0.1,0.3,0.1,0.5c0,0.2,0,0.5,0,0.8c0,0.2,0,0.4,0,0.6
		c0,0.2,0,0.3-0.1,0.5c0,0.1-0.1,0.3-0.1,0.4c-0.1,0.1-0.1,0.2-0.2,0.3c-0.1,0.1-0.4,0.3-0.9,0.5c-0.5,0.2-1.1,0.5-1.9,0.7
		c-0.8,0.2-1.7,0.4-2.8,0.6c-1,0.2-2.2,0.3-3.3,0.3c-2.1,0-3.8-0.3-5.4-0.9c-1.5-0.6-2.8-1.4-3.9-2.5c-1.1-1.1-1.8-2.5-2.4-4.2
		c-0.5-1.7-0.8-3.7-0.8-5.9c0-2.1,0.3-4.1,0.8-5.8c0.6-1.7,1.4-3.2,2.4-4.4c1-1.2,2.3-2.1,3.8-2.7c1.5-0.6,3.1-1,5-1
		c2,0,3.6,0.3,5,0.9c1.4,0.6,2.5,1.5,3.4,2.5c0.9,1.1,1.5,2.3,2,3.7c0.4,1.4,0.6,3,0.6,4.6V187.9z M465.8,186.6
		c0.1-2.4-0.5-4.3-1.6-5.7c-1.1-1.4-2.8-2.1-5-2.1c-1.1,0-2.1,0.2-3,0.6c-0.9,0.4-1.6,1-2.1,1.7c-0.6,0.7-1,1.5-1.3,2.5
		c-0.3,0.9-0.5,1.9-0.5,2.9H465.8z"/>
	<path class="st1" d="M493.3,178.2c0,0.4,0,0.7,0,1c0,0.3-0.1,0.5-0.1,0.7s-0.1,0.3-0.2,0.4s-0.2,0.1-0.3,0.1c-0.1,0-0.3,0-0.5-0.1
		c-0.2-0.1-0.5-0.2-0.7-0.3c-0.3-0.1-0.6-0.2-0.9-0.2c-0.3-0.1-0.7-0.1-1.1-0.1c-0.5,0-0.9,0.1-1.4,0.3s-0.9,0.5-1.4,0.9
		c-0.5,0.4-1,1-1.5,1.7c-0.5,0.7-1.1,1.6-1.8,2.6v16.4c0,0.1,0,0.3-0.1,0.4s-0.2,0.2-0.4,0.3c-0.2,0.1-0.4,0.1-0.7,0.2
		c-0.3,0-0.7,0.1-1.1,0.1c-0.4,0-0.8,0-1.1-0.1c-0.3,0-0.5-0.1-0.7-0.2c-0.2-0.1-0.3-0.2-0.4-0.3c-0.1-0.1-0.1-0.2-0.1-0.4v-24.9
		c0-0.1,0-0.3,0.1-0.4c0.1-0.1,0.2-0.2,0.3-0.3c0.2-0.1,0.4-0.1,0.6-0.2c0.3,0,0.6,0,1,0c0.4,0,0.7,0,1,0c0.3,0,0.5,0.1,0.6,0.2
		c0.1,0.1,0.3,0.2,0.3,0.3c0.1,0.1,0.1,0.2,0.1,0.4v3.6c0.7-1,1.3-1.8,1.9-2.4s1.2-1.1,1.7-1.5c0.5-0.4,1.1-0.6,1.6-0.7
		c0.5-0.1,1.1-0.2,1.6-0.2c0.2,0,0.5,0,0.8,0c0.3,0,0.6,0.1,1,0.2c0.3,0.1,0.6,0.2,0.9,0.3c0.3,0.1,0.5,0.2,0.6,0.3
		c0.1,0.1,0.2,0.2,0.2,0.3c0,0.1,0.1,0.2,0.1,0.3c0,0.1,0,0.3,0.1,0.6C493.3,177.4,493.3,177.8,493.3,178.2z"/>
	<path class="st1" d="M520.9,176.5c0,0.1,0,0.2,0,0.2c0,0.1,0,0.2,0,0.3c0,0.1,0,0.2-0.1,0.3c0,0.1-0.1,0.2-0.1,0.4l-8.5,23.7
		c-0.1,0.2-0.2,0.4-0.3,0.5c-0.1,0.1-0.3,0.2-0.5,0.3c-0.2,0.1-0.5,0.1-0.9,0.2c-0.4,0-0.8,0-1.4,0s-1,0-1.4-0.1
		c-0.4,0-0.7-0.1-0.9-0.2c-0.2-0.1-0.4-0.2-0.5-0.3c-0.1-0.1-0.2-0.3-0.3-0.5l-8.5-23.7c-0.1-0.2-0.1-0.4-0.2-0.6s-0.1-0.3-0.1-0.4
		c0-0.1,0-0.2,0-0.2c0-0.1,0-0.3,0.1-0.4c0.1-0.1,0.2-0.2,0.4-0.3c0.2-0.1,0.4-0.1,0.7-0.1c0.3,0,0.6,0,1.1,0c0.5,0,1,0,1.3,0
		c0.3,0,0.6,0.1,0.7,0.2c0.2,0.1,0.3,0.2,0.4,0.3c0.1,0.1,0.2,0.3,0.2,0.4l7,20.6l0.1,0.3l0.1-0.3l7-20.6c0-0.2,0.1-0.3,0.2-0.4
		c0.1-0.1,0.2-0.2,0.4-0.3c0.2-0.1,0.4-0.1,0.7-0.2c0.3,0,0.7,0,1.2,0c0.4,0,0.8,0,1.1,0c0.3,0,0.5,0.1,0.7,0.1
		c0.2,0.1,0.3,0.2,0.3,0.3S520.9,176.3,520.9,176.5z"/>
	<path class="st1" d="M532.6,168.1c0,1.1-0.2,1.8-0.6,2.2c-0.4,0.4-1.2,0.6-2.2,0.6c-1.1,0-1.8-0.2-2.2-0.6
		c-0.4-0.4-0.6-1.1-0.6-2.1c0-1.1,0.2-1.8,0.6-2.2c0.4-0.4,1.2-0.6,2.2-0.6c1.1,0,1.8,0.2,2.2,0.6S532.6,167.1,532.6,168.1z
		 M532.1,201.5c0,0.1,0,0.3-0.1,0.4s-0.2,0.2-0.4,0.3c-0.2,0.1-0.4,0.1-0.7,0.2c-0.3,0-0.7,0.1-1.1,0.1c-0.4,0-0.8,0-1.1-0.1
		c-0.3,0-0.5-0.1-0.7-0.2c-0.2-0.1-0.3-0.2-0.4-0.3c-0.1-0.1-0.1-0.2-0.1-0.4v-24.9c0-0.1,0-0.3,0.1-0.4c0.1-0.1,0.2-0.2,0.4-0.3
		s0.4-0.1,0.7-0.2s0.7-0.1,1.1-0.1c0.5,0,0.8,0,1.1,0.1c0.3,0,0.5,0.1,0.7,0.2c0.2,0.1,0.3,0.2,0.4,0.3c0.1,0.1,0.1,0.2,0.1,0.4
		V201.5z"/>
	<path class="st1" d="M559.9,197.7c0,0.3,0,0.6,0,0.8c0,0.2-0.1,0.4-0.1,0.6s-0.1,0.3-0.2,0.4c-0.1,0.1-0.2,0.3-0.4,0.5
		c-0.2,0.2-0.6,0.5-1.2,0.9c-0.6,0.3-1.2,0.6-1.9,0.9c-0.7,0.3-1.4,0.5-2.3,0.7c-0.8,0.2-1.7,0.2-2.5,0.2c-1.8,0-3.4-0.3-4.8-0.9
		s-2.5-1.5-3.5-2.6c-0.9-1.1-1.6-2.5-2.1-4.2c-0.5-1.7-0.7-3.6-0.7-5.7c0-2.5,0.3-4.6,0.9-6.3c0.6-1.8,1.4-3.2,2.5-4.3
		c1-1.1,2.3-2,3.7-2.5s2.9-0.8,4.6-0.8c0.8,0,1.6,0.1,2.3,0.2c0.7,0.1,1.4,0.3,2.1,0.6c0.6,0.2,1.2,0.5,1.7,0.8
		c0.5,0.3,0.8,0.6,1.1,0.8s0.4,0.4,0.5,0.5c0.1,0.1,0.2,0.3,0.2,0.5c0.1,0.2,0.1,0.4,0.1,0.6s0,0.5,0,0.8c0,0.7-0.1,1.2-0.2,1.5
		c-0.2,0.3-0.4,0.4-0.6,0.4c-0.3,0-0.6-0.2-1-0.5c-0.4-0.3-0.8-0.6-1.4-1c-0.6-0.4-1.2-0.7-2-1s-1.7-0.5-2.8-0.5
		c-2.2,0-3.9,0.8-5.1,2.5c-1.2,1.7-1.8,4.1-1.8,7.4c0,1.6,0.2,3,0.5,4.2c0.3,1.2,0.8,2.2,1.3,3c0.6,0.8,1.3,1.4,2.2,1.8
		s1.8,0.6,3,0.6c1.1,0,2-0.2,2.8-0.5c0.8-0.3,1.5-0.7,2.1-1.1s1.1-0.8,1.5-1.1s0.7-0.5,0.9-0.5c0.1,0,0.2,0,0.3,0.1
		c0.1,0.1,0.2,0.2,0.2,0.4c0.1,0.2,0.1,0.4,0.1,0.7C559.9,197,559.9,197.3,559.9,197.7z"/>
	<path class="st1" d="M588.7,187.9c0,0.7-0.2,1.2-0.5,1.5s-0.8,0.5-1.2,0.5h-16.4c0,1.4,0.1,2.6,0.4,3.7c0.3,1.1,0.7,2.1,1.4,2.9
		c0.6,0.8,1.5,1.4,2.5,1.8s2.3,0.6,3.8,0.6c1.2,0,2.2-0.1,3.2-0.3c0.9-0.2,1.7-0.4,2.4-0.7c0.7-0.2,1.2-0.5,1.7-0.7
		c0.4-0.2,0.8-0.3,1-0.3c0.1,0,0.2,0,0.3,0.1c0.1,0.1,0.2,0.2,0.2,0.3s0.1,0.3,0.1,0.5c0,0.2,0,0.5,0,0.8c0,0.2,0,0.4,0,0.6
		c0,0.2,0,0.3-0.1,0.5c0,0.1-0.1,0.3-0.1,0.4c-0.1,0.1-0.1,0.2-0.2,0.3c-0.1,0.1-0.4,0.3-0.9,0.5c-0.5,0.2-1.1,0.5-1.9,0.7
		c-0.8,0.2-1.7,0.4-2.8,0.6c-1,0.2-2.2,0.3-3.3,0.3c-2.1,0-3.8-0.3-5.4-0.9c-1.5-0.6-2.8-1.4-3.9-2.5c-1.1-1.1-1.8-2.5-2.4-4.2
		c-0.5-1.7-0.8-3.7-0.8-5.9c0-2.1,0.3-4.1,0.8-5.8c0.6-1.7,1.4-3.2,2.4-4.4c1-1.2,2.3-2.1,3.8-2.7c1.5-0.6,3.1-1,5-1
		c2,0,3.6,0.3,5,0.9c1.4,0.6,2.5,1.5,3.4,2.5c0.9,1.1,1.5,2.3,2,3.7c0.4,1.4,0.6,3,0.6,4.6V187.9z M584.1,186.6
		c0.1-2.4-0.5-4.3-1.6-5.7c-1.1-1.4-2.8-2.1-5-2.1c-1.1,0-2.1,0.2-3,0.6c-0.9,0.4-1.6,1-2.1,1.7c-0.6,0.7-1,1.5-1.3,2.5
		c-0.3,0.9-0.5,1.9-0.5,2.9H584.1z"/>
	<path class="st1" d="M612.7,194.7c0,1.3-0.2,2.4-0.7,3.4c-0.5,1-1.1,1.8-2,2.5c-0.9,0.7-1.9,1.2-3.1,1.6s-2.5,0.5-4,0.5
		c-0.9,0-1.7-0.1-2.5-0.2s-1.5-0.3-2.2-0.5c-0.6-0.2-1.2-0.4-1.6-0.7c-0.4-0.2-0.8-0.4-1-0.6c-0.2-0.2-0.4-0.4-0.4-0.8
		c-0.1-0.3-0.1-0.8-0.1-1.4c0-0.4,0-0.6,0.1-0.9c0-0.2,0.1-0.4,0.1-0.6c0.1-0.1,0.1-0.3,0.2-0.3c0.1-0.1,0.2-0.1,0.3-0.1
		c0.2,0,0.5,0.1,0.9,0.4c0.4,0.2,0.9,0.5,1.5,0.8s1.3,0.6,2.1,0.8c0.8,0.2,1.7,0.4,2.7,0.4c0.8,0,1.5-0.1,2.1-0.2
		c0.6-0.2,1.2-0.4,1.6-0.7s0.8-0.7,1.1-1.2c0.2-0.5,0.4-1.1,0.4-1.8c0-0.7-0.2-1.3-0.5-1.8c-0.4-0.5-0.8-0.9-1.4-1.3
		c-0.6-0.4-1.3-0.7-2-1c-0.7-0.3-1.5-0.6-2.3-0.9s-1.6-0.7-2.3-1.1c-0.7-0.4-1.4-0.9-2-1.5c-0.6-0.6-1.1-1.3-1.4-2.1
		c-0.4-0.8-0.5-1.7-0.5-2.9c0-1,0.2-1.9,0.6-2.8c0.4-0.9,0.9-1.7,1.7-2.4c0.8-0.7,1.7-1.2,2.8-1.6c1.1-0.4,2.5-0.6,4-0.6
		c0.7,0,1.3,0.1,2,0.2c0.7,0.1,1.3,0.2,1.8,0.4c0.5,0.2,1,0.3,1.4,0.5c0.4,0.2,0.7,0.4,0.9,0.5c0.2,0.1,0.3,0.3,0.4,0.4
		c0.1,0.1,0.1,0.2,0.1,0.4c0,0.1,0.1,0.3,0.1,0.5c0,0.2,0,0.5,0,0.7c0,0.3,0,0.6,0,0.8c0,0.2-0.1,0.4-0.1,0.6
		c-0.1,0.1-0.1,0.3-0.2,0.3c-0.1,0.1-0.2,0.1-0.3,0.1c-0.2,0-0.4-0.1-0.7-0.3c-0.3-0.2-0.7-0.4-1.2-0.7c-0.5-0.2-1.1-0.4-1.8-0.7
		c-0.7-0.2-1.4-0.3-2.3-0.3c-0.8,0-1.5,0.1-2.1,0.3c-0.6,0.2-1.1,0.4-1.5,0.7c-0.4,0.3-0.7,0.7-0.9,1.2s-0.3,0.9-0.3,1.4
		c0,0.7,0.2,1.3,0.6,1.8c0.4,0.5,0.8,0.9,1.4,1.3c0.6,0.4,1.3,0.7,2,1s1.5,0.6,2.3,0.9c0.8,0.3,1.6,0.7,2.3,1.1
		c0.8,0.4,1.4,0.9,2,1.4c0.6,0.6,1.1,1.2,1.4,2C612.5,192.7,612.7,193.6,612.7,194.7z"/>
	<path class="st1" d="M659.4,197.1c0,0.3,0,0.6,0,0.8s-0.1,0.4-0.1,0.6c0,0.2-0.1,0.3-0.2,0.4c-0.1,0.1-0.2,0.3-0.4,0.5
		s-0.6,0.5-1.2,0.8c-0.6,0.4-1.3,0.7-2.2,1.1c-0.9,0.4-1.9,0.7-3,0.9c-1.1,0.2-2.4,0.4-3.7,0.4c-2.3,0-4.4-0.4-6.3-1.2
		c-1.9-0.8-3.5-1.9-4.8-3.4c-1.3-1.5-2.3-3.4-3-5.6c-0.7-2.2-1.1-4.8-1.1-7.7c0-3,0.4-5.6,1.2-8c0.8-2.3,1.8-4.3,3.2-5.9
		c1.4-1.6,3-2.8,5-3.7s4.1-1.3,6.4-1.3c1,0,2,0.1,3,0.3c1,0.2,1.9,0.4,2.7,0.7c0.8,0.3,1.6,0.6,2.2,1c0.6,0.4,1.1,0.7,1.3,1
		c0.2,0.2,0.4,0.4,0.5,0.6c0.1,0.1,0.1,0.3,0.2,0.5c0,0.2,0.1,0.4,0.1,0.6c0,0.2,0,0.5,0,0.9c0,0.4,0,0.7-0.1,0.9
		c0,0.3-0.1,0.5-0.2,0.7c-0.1,0.2-0.2,0.3-0.3,0.4c-0.1,0.1-0.2,0.1-0.4,0.1c-0.3,0-0.6-0.2-1.1-0.5c-0.5-0.4-1.1-0.8-1.8-1.2
		c-0.7-0.4-1.6-0.8-2.7-1.2s-2.3-0.5-3.8-0.5c-1.6,0-3.1,0.3-4.4,1c-1.3,0.6-2.4,1.6-3.4,2.8c-0.9,1.2-1.6,2.7-2.2,4.5
		c-0.5,1.8-0.8,3.8-0.8,6.1c0,2.3,0.2,4.3,0.7,6c0.5,1.7,1.2,3.2,2.1,4.4c0.9,1.2,2,2.1,3.4,2.7c1.3,0.6,2.9,0.9,4.5,0.9
		c1.4,0,2.7-0.2,3.7-0.5c1.1-0.4,2-0.7,2.7-1.2c0.8-0.4,1.4-0.8,1.9-1.2c0.5-0.4,0.9-0.5,1.1-0.5c0.1,0,0.2,0,0.3,0.1
		c0.1,0.1,0.2,0.2,0.2,0.3c0.1,0.2,0.1,0.4,0.1,0.7C659.4,196.3,659.4,196.7,659.4,197.1z"/>
	<path class="st1" d="M687.9,187.9c0,0.7-0.2,1.2-0.5,1.5s-0.8,0.5-1.2,0.5h-16.4c0,1.4,0.1,2.6,0.4,3.7c0.3,1.1,0.7,2.1,1.4,2.9
		c0.6,0.8,1.5,1.4,2.5,1.8s2.3,0.6,3.8,0.6c1.2,0,2.2-0.1,3.2-0.3c0.9-0.2,1.7-0.4,2.4-0.7c0.7-0.2,1.2-0.5,1.7-0.7
		c0.4-0.2,0.8-0.3,1-0.3c0.1,0,0.2,0,0.3,0.1c0.1,0.1,0.2,0.2,0.2,0.3s0.1,0.3,0.1,0.5c0,0.2,0,0.5,0,0.8c0,0.2,0,0.4,0,0.6
		c0,0.2,0,0.3-0.1,0.5c0,0.1-0.1,0.3-0.1,0.4c-0.1,0.1-0.1,0.2-0.2,0.3c-0.1,0.1-0.4,0.3-0.9,0.5c-0.5,0.2-1.1,0.5-1.9,0.7
		c-0.8,0.2-1.7,0.4-2.8,0.6c-1,0.2-2.2,0.3-3.3,0.3c-2.1,0-3.8-0.3-5.4-0.9c-1.5-0.6-2.8-1.4-3.9-2.5c-1.1-1.1-1.8-2.5-2.4-4.2
		c-0.5-1.7-0.8-3.7-0.8-5.9c0-2.1,0.3-4.1,0.8-5.8c0.6-1.7,1.4-3.2,2.4-4.4c1-1.2,2.3-2.1,3.8-2.7c1.5-0.6,3.1-1,5-1
		c2,0,3.6,0.3,5,0.9c1.4,0.6,2.5,1.5,3.4,2.5c0.9,1.1,1.5,2.3,2,3.7c0.4,1.4,0.6,3,0.6,4.6V187.9z M683.3,186.6
		c0.1-2.4-0.5-4.3-1.6-5.7c-1.1-1.4-2.8-2.1-5-2.1c-1.1,0-2.1,0.2-3,0.6c-0.9,0.4-1.6,1-2.1,1.7c-0.6,0.7-1,1.5-1.3,2.5
		c-0.3,0.9-0.5,1.9-0.5,2.9H683.3z"/>
	<path class="st1" d="M717.7,201.5c0,0.1,0,0.3-0.1,0.4c-0.1,0.1-0.2,0.2-0.4,0.3c-0.2,0.1-0.4,0.1-0.7,0.2c-0.3,0-0.7,0.1-1.1,0.1
		c-0.5,0-0.8,0-1.1-0.1c-0.3,0-0.5-0.1-0.7-0.2c-0.2-0.1-0.3-0.2-0.4-0.3c-0.1-0.1-0.1-0.2-0.1-0.4v-14.6c0-1.4-0.1-2.6-0.3-3.4
		c-0.2-0.9-0.5-1.6-1-2.2c-0.4-0.6-1-1.1-1.6-1.4c-0.7-0.3-1.5-0.5-2.3-0.5c-1.1,0-2.3,0.4-3.4,1.2c-1.1,0.8-2.3,2-3.6,3.6v17.4
		c0,0.1,0,0.3-0.1,0.4s-0.2,0.2-0.4,0.3c-0.2,0.1-0.4,0.1-0.7,0.2c-0.3,0-0.7,0.1-1.1,0.1c-0.4,0-0.8,0-1.1-0.1
		c-0.3,0-0.5-0.1-0.7-0.2c-0.2-0.1-0.3-0.2-0.4-0.3c-0.1-0.1-0.1-0.2-0.1-0.4v-24.9c0-0.1,0-0.3,0.1-0.4c0.1-0.1,0.2-0.2,0.3-0.3
		c0.2-0.1,0.4-0.1,0.6-0.2c0.3,0,0.6,0,1,0c0.4,0,0.7,0,1,0c0.3,0,0.5,0.1,0.6,0.2c0.1,0.1,0.3,0.2,0.3,0.3c0.1,0.1,0.1,0.2,0.1,0.4
		v3.3c1.4-1.6,2.8-2.7,4.2-3.5c1.4-0.7,2.8-1.1,4.2-1.1c1.7,0,3.1,0.3,4.2,0.8c1.1,0.6,2.1,1.3,2.8,2.3c0.7,0.9,1.2,2,1.5,3.3
		c0.3,1.3,0.5,2.8,0.5,4.6V201.5z"/>
	<path class="st1" d="M739.9,199.7c0,0.5,0,1-0.1,1.3c-0.1,0.3-0.2,0.5-0.3,0.7c-0.1,0.1-0.4,0.3-0.7,0.4c-0.3,0.1-0.6,0.2-1,0.3
		c-0.4,0.1-0.8,0.2-1.2,0.2c-0.4,0.1-0.8,0.1-1.3,0.1c-1.3,0-2.4-0.2-3.3-0.5c-0.9-0.3-1.7-0.9-2.3-1.6c-0.6-0.7-1-1.6-1.3-2.6
		s-0.4-2.3-0.4-3.8v-14.6h-3.5c-0.3,0-0.5-0.1-0.7-0.4s-0.2-0.8-0.2-1.4c0-0.4,0-0.6,0.1-0.9s0.1-0.4,0.2-0.6
		c0.1-0.2,0.2-0.3,0.3-0.3c0.1-0.1,0.3-0.1,0.4-0.1h3.5v-5.9c0-0.1,0-0.2,0.1-0.4c0.1-0.1,0.2-0.2,0.4-0.3c0.2-0.1,0.4-0.1,0.7-0.2
		c0.3,0,0.7-0.1,1.1-0.1c0.5,0,0.8,0,1.1,0.1c0.3,0,0.5,0.1,0.7,0.2c0.2,0.1,0.3,0.2,0.4,0.3c0.1,0.1,0.1,0.2,0.1,0.4v5.9h6.4
		c0.1,0,0.3,0,0.4,0.1c0.1,0.1,0.2,0.2,0.3,0.3s0.1,0.4,0.2,0.6s0.1,0.5,0.1,0.9c0,0.7-0.1,1.1-0.2,1.4c-0.2,0.3-0.4,0.4-0.7,0.4
		h-6.4v13.9c0,1.7,0.3,3,0.8,3.9c0.5,0.9,1.4,1.3,2.7,1.3c0.4,0,0.8,0,1.1-0.1c0.3-0.1,0.6-0.2,0.9-0.3c0.3-0.1,0.5-0.2,0.7-0.3
		s0.4-0.1,0.5-0.1c0.1,0,0.2,0,0.3,0.1c0.1,0,0.1,0.1,0.2,0.3s0.1,0.3,0.1,0.5S739.9,199.3,739.9,199.7z"/>
	<path class="st1" d="M762,178.2c0,0.4,0,0.7,0,1c0,0.3-0.1,0.5-0.1,0.7s-0.1,0.3-0.2,0.4s-0.2,0.1-0.3,0.1c-0.1,0-0.3,0-0.5-0.1
		c-0.2-0.1-0.5-0.2-0.7-0.3c-0.3-0.1-0.6-0.2-0.9-0.2c-0.3-0.1-0.7-0.1-1.1-0.1c-0.5,0-0.9,0.1-1.4,0.3s-0.9,0.5-1.4,0.9
		c-0.5,0.4-1,1-1.5,1.7c-0.5,0.7-1.1,1.6-1.8,2.6v16.4c0,0.1,0,0.3-0.1,0.4s-0.2,0.2-0.4,0.3c-0.2,0.1-0.4,0.1-0.7,0.2
		c-0.3,0-0.7,0.1-1.1,0.1c-0.4,0-0.8,0-1.1-0.1c-0.3,0-0.5-0.1-0.7-0.2c-0.2-0.1-0.3-0.2-0.4-0.3c-0.1-0.1-0.1-0.2-0.1-0.4v-24.9
		c0-0.1,0-0.3,0.1-0.4c0.1-0.1,0.2-0.2,0.3-0.3c0.2-0.1,0.4-0.1,0.6-0.2c0.3,0,0.6,0,1,0c0.4,0,0.7,0,1,0c0.3,0,0.5,0.1,0.6,0.2
		c0.1,0.1,0.3,0.2,0.3,0.3c0.1,0.1,0.1,0.2,0.1,0.4v3.6c0.7-1,1.3-1.8,1.9-2.4s1.2-1.1,1.7-1.5c0.5-0.4,1.1-0.6,1.6-0.7
		c0.5-0.1,1.1-0.2,1.6-0.2c0.2,0,0.5,0,0.8,0c0.3,0,0.6,0.1,1,0.2c0.3,0.1,0.6,0.2,0.9,0.3c0.3,0.1,0.5,0.2,0.6,0.3
		c0.1,0.1,0.2,0.2,0.2,0.3c0,0.1,0.1,0.2,0.1,0.3c0,0.1,0,0.3,0.1,0.6C762,177.4,762,177.8,762,178.2z"/>
	<path class="st1" d="M789.2,187.9c0,0.7-0.2,1.2-0.5,1.5s-0.8,0.5-1.2,0.5h-16.4c0,1.4,0.1,2.6,0.4,3.7c0.3,1.1,0.7,2.1,1.4,2.9
		c0.6,0.8,1.5,1.4,2.5,1.8s2.3,0.6,3.8,0.6c1.2,0,2.2-0.1,3.2-0.3c0.9-0.2,1.7-0.4,2.4-0.7c0.7-0.2,1.2-0.5,1.7-0.7
		c0.4-0.2,0.8-0.3,1-0.3c0.1,0,0.2,0,0.3,0.1c0.1,0.1,0.2,0.2,0.2,0.3s0.1,0.3,0.1,0.5c0,0.2,0,0.5,0,0.8c0,0.2,0,0.4,0,0.6
		c0,0.2,0,0.3-0.1,0.5c0,0.1-0.1,0.3-0.1,0.4c-0.1,0.1-0.1,0.2-0.2,0.3c-0.1,0.1-0.4,0.3-0.9,0.5c-0.5,0.2-1.1,0.5-1.9,0.7
		c-0.8,0.2-1.7,0.4-2.8,0.6c-1,0.2-2.2,0.3-3.3,0.3c-2.1,0-3.8-0.3-5.4-0.9c-1.5-0.6-2.8-1.4-3.9-2.5c-1.1-1.1-1.8-2.5-2.4-4.2
		c-0.5-1.7-0.8-3.7-0.8-5.9c0-2.1,0.3-4.1,0.8-5.8c0.6-1.7,1.4-3.2,2.4-4.4c1-1.2,2.3-2.1,3.8-2.7c1.5-0.6,3.1-1,5-1
		c2,0,3.6,0.3,5,0.9c1.4,0.6,2.5,1.5,3.4,2.5c0.9,1.1,1.5,2.3,2,3.7c0.4,1.4,0.6,3,0.6,4.6V187.9z M784.5,186.6
		c0.1-2.4-0.5-4.3-1.6-5.7c-1.1-1.4-2.8-2.1-5-2.1c-1.1,0-2.1,0.2-3,0.6c-0.9,0.4-1.6,1-2.1,1.7c-0.6,0.7-1,1.5-1.3,2.5
		c-0.3,0.9-0.5,1.9-0.5,2.9H784.5z"/>
</g>
<path class="st1" d="M322,192c0,0,96-13,96-97C418-27,286,4,286,4v19c0,0,121-27,121,81C407,178,322,192,322,192z"/>
<path class="st1" d="M286,27v19c0,0,108-23,108,65c0,64-72,81-72,81s82-18,82-86C404-2,286,27,286,27z"/>
<path class="st1" d="M286,50v19c0,0,95-17,95,47c0,56-59,76-59,76s70-23,70-77C392,25,286,50,286,50z"/>
</svg>
