<?xml version="1.0" encoding="utf-8"?>
<!-- Generator: Adobe Illustrator 21.0.0, SVG Export Plug-In . SVG Version: 6.00 Build 0)  -->
<svg version="1.1" id="图层_1" xmlns="http://www.w3.org/2000/svg" xmlns:xlink="http://www.w3.org/1999/xlink" x="0px" y="0px"
	 viewBox="0 0 516 170" style="enable-background:new 0 0 516 170;" xml:space="preserve">
<style type="text/css">
	.st0{fill:#999999;}
	.st1{fill:#777777;}
	.st2{fill:#777777;stroke:#777777;stroke-miterlimit:10;}
</style>
<path class="st0" d="M115,144.2c-5.4-6-11.6-10.9-16.5-17.2c-5.6-7.1-5.3-17.8,0.1-25.2c3.9-5.3,9.4-7.9,15.7-8.2
	c5.5-0.3,10.8,1.3,14.9,5.4c4.5,4.5,8.9,9.1,13.6,13.5c1.8,1.7,1.6,2.6-0.1,4c-2.1,1.8-4.1,3.8-5.9,5.9c-1.3,1.4-2,1.4-3.4,0
	c-4.1-4.3-8.4-8.5-12.6-12.7c-3.3-3.4-7.8-3.8-10.7-0.6c-3.3,3.5-3.1,7.6,0.2,11.1c4.2,4.4,8.5,8.7,12.9,12.9c1.3,1.3,1.2,1.9,0,3
	C120.3,138.7,117.7,141.5,115,144.2z"/>
<path class="st0" d="M35.9,45.9c4.9,4.9,9.6,9.8,14.4,14.5c2.5,2.4,6,3,8.9,1.6c3-1.5,4.3-4,4.2-7.7c-0.1-1.7-1-2.8-2.1-3.9
	c-4.4-4.3-8.6-8.8-13.1-13c-1.7-1.5-1.5-2.4,0.1-3.8c2.3-2,4.4-4.3,6.4-6.6c0.8-0.9,1.4-0.9,1.9-0.3c6,6.8,14.1,11.7,18.2,20.1
	c6,12-2,26.7-14.8,29c-7.9,1.4-14.2-1-19.8-6.3c-4.4-4.2-8.6-8.6-12.9-12.8c-0.9-0.9-1.4-1.2,0.1-2.4C30.6,51.8,33.1,48.8,35.9,45.9
	z"/>
<path class="st0" d="M135.4,45.9c2.7,2.8,5.3,5.5,8,8.2c0.5,0.6,1.4,1.1,0.4,2c-5.9,5.5-10.9,12.1-17.5,16.8
	c-11.6,8.3-29.7,0.8-31.6-14c-1-7.7,1.4-13.8,6.3-19.2c3.8-4.3,8.1-8.1,12.2-12.3c1.3-1.4,2.2-1.4,3.5,0c2.2,2.3,4.4,4.6,6.8,6.7
	c1.3,1.1,1,1.8-0.1,2.9c-4.1,4-8.2,8-12.4,11.8c-3.4,3.1-4,6.5-2.4,9.8c2.3,4.7,8.4,5.6,12.5,1.6C125.9,55.5,130.5,50.8,135.4,45.9z
	"/>
<path class="st0" d="M55.7,144.2c-2.4-2.4-4.7-4.7-7-7.1c-2.4-2.5-2.4-3.4,0.4-5.5c4.7-3.4,8.4-7.9,12.4-11.9
	c2.2-2.2,2.8-5.1,1.4-8.1c-1.4-3-4.7-4.8-7.9-4.5c-2.4,0.3-4,1.8-5.6,3.3c-4,3.9-8,7.7-11.7,11.8c-1.5,1.7-2.6,1.4-3.9,0
	c-2.4-2.7-5.3-4.8-7.3-7.8c2.3-2.4,4.7-4.9,7.1-7.3c3.7-3.7,7.2-7.8,11.8-10.5c12.4-7.4,29,0.1,31.1,14.7c1.1,7.6-1.1,13.7-6.7,18.9
	C65,134.7,60.4,139.4,55.7,144.2z"/>
<path class="st1" d="M130.3,91.7c-5.6,0-11.1,0-16.6,0c-4.9,0-7.3-2-7.6-5.8c-0.5-5.8,2.9-7.6,7.3-7.7c11.8-0.2,23.6-0.1,35.5-0.1
	c1.5,0,2,0.4,1.4,2c-1.4,3.2-1.5,6.5,0,9.7c0.9,2-0.3,2-1.7,1.9C142.4,91.7,136.3,91.7,130.3,91.7z"/>
<path class="st1" d="M78.9,19.9c4.3,1.6,8,2.4,12,0.4c2.2-1.1,1.6,1.1,1.6,2.1c0,10.3,0.1,20.6,0,30.8c0,2.4,0.4,4.8-0.6,7.2
	c-1.3,3.2-3.8,4.5-8.1,4c-2.5-0.3-4.8-2.8-4.9-5.7C78.8,45.9,78.9,33.1,78.9,19.9z"/>
<path class="st1" d="M92.4,129.8c0,6,0,11.9,0,17.9c0,1.7-0.1,2.4-2.2,1.6c-3.2-1.2-6.5-1.5-9.7,0.1c-1.9,0.9-1.7-0.6-1.7-1.7
	c0-7.4,0-14.8,0-22.2c0-4.4,0-8.8,0-13.3c0-4.2,2.5-7,6.5-7c4.2-0.1,7,2.7,7.1,7C92.5,118.1,92.4,123.9,92.4,129.8z"/>
<path class="st1" d="M40.6,91.7c-5.8,0-11.7,0-17.6,0c-1.9,0-2.6-0.2-1.7-2.4c1.3-2.9,1.2-6.2-0.1-9.1c-0.8-1.8-0.1-2.1,1.5-2.1
	c11.7,0,23.4,0,35.2,0c4.7,0,7.5,2.8,7.4,7c0,4.1-2.9,6.6-7.7,6.6C51.9,91.7,46.2,91.7,40.6,91.7z"/>
<path class="st1" d="M85.8,0.3c5.3,0,9.3,3.9,9.1,9.1s-4.4,9.2-8.9,9.3c-5.6,0.2-9.6-4-9.6-9.7C76.4,4,80.3,0.3,85.8,0.3z"/>
<path class="st1" d="M19,85.3c0,5.1-3.8,8.8-9,8.8c-5.2,0-9.5-4.1-9.4-9.2c0.1-5.6,5.5-9.5,9.3-9.4C15.3,75.6,19.8,80.5,19,85.3z"/>
<path class="st1" d="M85.7,151.5c5.3,0,9.3,3.8,9.2,9c-0.1,5-3.7,9-8.8,9.4c-5.2,0.5-9.7-4.1-9.7-9.6
	C76.4,155.3,80.3,151.6,85.7,151.5z"/>
<path class="st1" d="M152.3,84.8c0-5.2,3.7-9.2,8.6-9.2c5.5,0,9.3,3.8,9.3,9.3c0,5.4-3.7,9.2-9,9.2
	C155.5,94.1,152.3,90.8,152.3,84.8z"/>
<line class="st2" x1="182" y1="83" x2="513.5" y2="83"/>
<g>
	<path class="st1" d="M187.7,45.9v-3.2c0-0.3,0-0.8-0.1-1.3h1.3c0,0.5-0.1,1-0.1,1.4v10.4c0,0.5,0,1.1,0.1,1.9h-1.3
		c0-0.8,0.1-1.6,0.1-2.4c-0.9,0.2-1.7,0.4-2.4,0.7c-0.7,0.2-1.2,0.4-1.6,0.7c-0.2-0.5-0.5-0.9-0.8-1.4c0.5,0,1.2-0.2,2.3-0.4
		c1-0.3,1.9-0.5,2.4-0.6v-4.7h-2.3c-0.5,0-1.1,0-1.7,0.1v-1.2c0.6,0,1.2,0.1,1.7,0.1H187.7z M192.5,42.6v4.3
		c1.5-0.7,2.7-1.5,3.8-2.4c0.3,0.4,0.6,0.8,1,1.2c-0.5,0.2-1.2,0.6-2.2,1.1c-1,0.5-1.9,0.9-2.6,1.3v4.7c0,0.7,0.3,1,0.9,1.1h1.6
		c0.4,0,0.7,0,0.9-0.2c0.2-0.2,0.3-0.7,0.5-1.6c0.3,0.3,0.8,0.5,1.4,0.6c-0.3,0.9-0.6,1.5-0.9,1.8c-0.3,0.3-0.7,0.5-1.2,0.5H193
		c-1.2,0-1.7-0.6-1.7-1.9V42.6c0-0.4,0-0.8-0.1-1.3h1.3C192.5,41.8,192.5,42.2,192.5,42.6z"/>
	<path class="st1" d="M207.4,42.9h3.4c1,0,1.8,0,2.5-0.1v1.2c-0.7,0-1.5-0.1-2.5-0.1h-8.9c-0.8,0-1.6,0-2.5,0.1v-1.2
		c0.8,0,1.7,0.1,2.5,0.1h4c-0.1-0.4-0.4-0.9-0.9-1.7c0.5-0.2,0.9-0.3,1.2-0.5C206.6,41.4,207,42.1,207.4,42.9z M200.4,54.7
		c-0.3-0.4-0.7-0.7-1-1c1.8-1.3,3-2.5,3.7-3.5c0.3,0.4,0.6,0.7,1,1C203.4,52,202.1,53.2,200.4,54.7z M211,47.7c0,0.9,0,1.6,0.1,2.1
		h-3.9v3.8c0,0.7-0.2,1.2-0.6,1.4c-0.4,0.2-1.1,0.4-2.1,0.5c-0.1-0.5-0.3-1-0.6-1.4c0.9,0,1.5,0,1.7-0.1c0.2-0.1,0.3-0.4,0.3-0.9
		v-3.4h-4.1c0-0.7,0.1-1.5,0.1-2.4s0-1.6-0.1-2.2h9.3C211,46,211,46.8,211,47.7z M209.7,48.8v-2.4H203v2.4H209.7z M211.6,52.3
		c0.6,0.5,1.1,0.9,1.5,1.3c-0.3,0.3-0.7,0.7-1,1.1c-0.6-0.7-1.8-1.7-3.6-3.1c0.3-0.3,0.5-0.6,0.8-1
		C210.2,51.2,210.9,51.8,211.6,52.3z"/>
	<path class="st1" d="M219.7,43.1v5.6c0,1.5-0.2,2.7-0.7,3.6c-0.4,1-1.4,2-2.8,3.1c-0.2-0.3-0.6-0.5-1.2-0.9
		c0.8-0.4,1.3-0.9,1.8-1.3c0.4-0.5,0.8-1,1.1-1.5c0.3-0.5,0.5-1.5,0.6-2.9v-5.8c0-0.7,0-1.3-0.1-2c0.5,0.1,1,0.1,1.4,0.2
		C219.8,41.7,219.8,42.3,219.7,43.1z M216.8,44.2v5.4c0,0.6,0,1.3,0.1,2.1h-1.3c0-0.8,0.1-1.5,0.1-2.1v-5.6c0-0.4,0-0.9-0.1-1.4h1.4
		C216.8,43.2,216.8,43.7,216.8,44.2z M227.7,41.9c0.5,0,1.1,0,1.8-0.1V43c-0.7,0-1.3-0.1-1.8-0.1h-2.1v2.4h3.4c0,0.6-0.1,1.3-0.1,2
		v4.1c0,0.7-0.2,1.1-0.6,1.3c-0.4,0.2-0.9,0.3-1.5,0.4c0-0.5-0.2-0.9-0.5-1.4c1,0,1.5-0.1,1.4-0.4v-4.9h-2.2V53c0,0.7,0,1.5,0.1,2.4
		h-1.3c0-0.8,0.1-1.6,0.1-2.4v-6.6h-2.1v7h-1.3c0-0.9,0.1-1.6,0.1-2.3v-3.7c0-0.7,0-1.3-0.1-2h3.3v-2.4h-2c-0.6,0-1.1,0-1.7,0.1
		v-1.1c0.6,0,1.1,0.1,1.7,0.1H227.7z"/>
	<path class="st1" d="M235,42.9c0-0.5,0-1.1-0.1-1.8h1.4c0,0.6-0.1,1.2-0.1,1.8h4c0-0.7,0-1.3-0.1-1.8h1.4c0,0.5-0.1,1.1-0.1,1.8
		h2.3c0.5,0,1,0,1.7-0.1V44c-0.7,0-1.2-0.1-1.7-0.1h-2.3c0,0.5,0,1.1,0.1,1.6h-1.3v-1.6h-4v1.7h-1.3c0-0.5,0.1-1.1,0.1-1.7h-2.1
		c-0.8,0-1.4,0-1.7,0.1v-1.1c0.7,0,1.3,0.1,1.7,0.1H235z M234.8,49.9c-0.4,0.3-0.7,0.6-0.9,1c-0.8-0.6-1.6-1.2-2.6-1.8
		c0.3-0.3,0.6-0.6,0.9-0.9C233.1,48.8,234,49.4,234.8,49.9z M234.2,53.7c-0.7,0.8-1.3,1.4-1.6,1.8c-0.2-0.3-0.5-0.6-1-0.9
		c0.4-0.3,1-0.9,1.8-1.7c0.8-0.8,1.3-1.5,1.7-2.1c0.3,0.3,0.5,0.6,0.8,0.9C235.5,52.2,234.9,52.8,234.2,53.7z M235.9,47.2
		c-0.3,0.2-0.7,0.5-1,0.9c-0.8-0.8-1.5-1.4-2.3-1.9c0.3-0.3,0.6-0.6,0.9-0.9C234.3,45.8,235.1,46.4,235.9,47.2z M240.1,50.4
		c0.9,0,1.4,0,1.7-0.1c0.3-0.1,0.4-0.3,0.5-0.7l0.1-2.4h-3.6v5.9c0.1,0.6,0.4,0.9,1.1,0.8h3.3c0.3,0,0.5-0.1,0.7-0.3
		c0.1-0.2,0.3-0.6,0.3-1.3c0.5,0.3,0.9,0.5,1.3,0.6c-0.3,0.9-0.5,1.4-0.8,1.6c-0.3,0.2-0.6,0.3-1.2,0.3H239c-1,0-1.4-0.5-1.4-1.6
		v-4.4c0-1,0-2-0.1-2.8h6.3c0,0.6-0.1,1.4-0.1,2.3c0,1-0.1,1.6-0.2,2c-0.1,0.4-0.3,0.6-0.7,0.8c-0.4,0.2-1,0.3-1.9,0.4
		C240.7,51.3,240.5,50.8,240.1,50.4z"/>
	<path class="st1" d="M253.5,45.4c0-1.5,0.1-2.4,0-2.9c0-0.5-0.1-1-0.1-1.4c0.5,0.1,1.1,0.1,1.7,0.2c-0.1,0.4-0.2,1-0.3,1.8
		c-0.1,0.8-0.1,1.6-0.1,2.4h3.2c1.1,0,2.2,0,3.1-0.1v1.4c-0.8,0-1.7-0.1-2.6-0.1h-3.7c0.2,0.7,0.5,1.4,0.9,2.2
		c0.4,0.7,0.8,1.4,1.3,1.9s1,1.2,1.8,1.8c0.8,0.6,1.6,1.1,2.5,1.6c-0.3,0.3-0.7,0.7-1,1.3c-0.8-0.4-1.5-0.9-2.2-1.6
		c-0.7-0.6-1.5-1.4-2.2-2.5c-0.7-1-1.3-2-1.7-2.8c-0.3,0.9-0.7,1.7-1.1,2.3c-0.4,0.6-0.8,1.2-1.2,1.7s-1,1-1.7,1.5s-1.5,1-2.3,1.5
		c-0.3-0.5-0.7-0.9-1.1-1.3c0.9-0.3,1.7-0.7,2.6-1.3c0.9-0.5,1.6-1.2,2.1-1.8c0.5-0.7,1-1.4,1.3-2.2c0.3-0.8,0.5-1.5,0.6-2.2H250
		c-1,0-1.8,0-2.4,0.1v-1.4c0.6,0,1.4,0.1,2.4,0.1H253.5z"/>
	<path class="st1" d="M274.5,47.2v1.3c-0.6,0.1-1.1,0.3-1.6,0.6c-0.5,0.3-1,0.6-1.7,0.8v0.6h3.9c0.5,0,1.1,0,1.9-0.1v1.3
		c-0.8,0-1.5-0.1-1.9-0.1h-3.9v2.6c0,0.6-0.2,0.9-0.7,1.1c-0.5,0.1-1.2,0.3-2.3,0.3c-0.1-0.5-0.3-0.9-0.6-1.4h1.7
		c0.4,0,0.6-0.2,0.6-0.7v-1.9h-4.3c-0.7,0-1.4,0-2.3,0.1v-1.3c0.9,0,1.6,0.1,2.2,0.1h4.4c0-0.3,0-0.7-0.1-1.1l2.3-1.1h-3.4
		c-0.8,0-1.7,0-2.7,0.1v-1.2c0.9,0,1.8,0.1,2.6,0.1H274.5z M273.5,44.4h3.4c0,0.4-0.1,0.8-0.1,1.3s0,1,0.1,1.4h-1.3v-1.7h-10.8v1.8
		h-1.3c0-0.5,0.1-1,0.1-1.5s0-0.9-0.1-1.3h8.7c0.3-0.6,0.7-1.2,1-1.8c0.4-0.6,0.6-1.3,0.8-1.9c0.7,0.4,1.2,0.6,1.6,0.8
		C274.8,42.5,274.1,43.4,273.5,44.4z M267.4,43.2c-0.5,0.3-0.8,0.6-1.1,0.9c-0.5-0.8-1.2-1.5-1.9-2.1c0.5-0.3,0.8-0.6,1-0.8
		C266.2,41.9,266.8,42.6,267.4,43.2z M271.2,43.1c-0.4,0.3-0.8,0.6-1.2,0.8c-0.3-0.7-0.8-1.4-1.5-2.3c0.4-0.3,0.8-0.5,1.1-0.8
		C270.5,41.9,271,42.6,271.2,43.1z"/>
	<path class="st1" d="M189.6,67.8v-3.3c-1,1-2,1.9-3.1,2.5c-1.1,0.6-1.9,1.1-2.5,1.3c0-0.3-0.3-0.7-0.8-1.1c1.1-0.3,2.1-0.7,3-1.3
		c0.9-0.5,1.6-1.1,2.1-1.6h-2.5c-0.7,0-1.4,0-2.2,0.1v-1c0.8,0,1.5,0.1,2.2,0.1h3.9v-1.6c-0.8,0.1-2.3,0.2-4.4,0.4
		c-0.1-0.4-0.3-0.8-0.6-1.1c2,0,3.9-0.1,5.8-0.4s3.2-0.5,3.9-0.8c0.3,0.4,0.6,0.9,1.1,1.3c-0.7,0-1.4,0.1-2.1,0.2
		c-0.7,0.1-1.5,0.2-2.5,0.3v1.8h4.1c0.6,0,1.3,0,2.1-0.1v1c-0.8,0-1.5-0.1-2.1-0.1h-2.6c0.5,0.6,1.2,1.2,2,1.8
		c0.8,0.6,1.9,1,3.2,1.3c-0.5,0.3-0.8,0.8-0.9,1.3c-0.6-0.3-1.2-0.5-1.8-0.8c-0.1,0.8-0.1,1.8-0.1,3.1c0,1.4,0,2.6,0.1,3.4h-1.2
		v-0.9h-6.6v1h-1.1v-3.4c0-1.4,0-2.6-0.1-3.5H189.6z M193.4,70.3v-1.6h-6.6v1.6H193.4z M193.4,72.7v-1.6h-6.6v1.6H193.4z
		 M193.7,67.4c-1-0.7-2-1.7-3-2.9h-0.1v3.3h3.6L193.7,67.4z"/>
	<path class="st1" d="M199,65.5c0.3-0.3,0.5-0.6,0.7-0.9c0.4,0.3,0.8,0.5,1.2,0.8c0.4,0.3,0.8,0.5,1.2,0.8c-0.3,0.3-0.5,0.7-0.8,1.1
		C200.8,66.7,200,66.1,199,65.5z M201.3,72c-0.4,1-0.7,1.9-1,2.7c-0.4-0.3-0.8-0.5-1.3-0.7c0.3-0.5,0.6-1.1,1-2
		c0.4-0.9,0.8-1.9,1.1-3.1c0.3,0.4,0.6,0.7,1.1,0.9C202,70.3,201.7,71,201.3,72z M199.7,61.6c0.3-0.3,0.5-0.5,0.7-0.9
		c0.4,0.2,1.2,0.7,2.3,1.5c-0.3,0.3-0.5,0.6-0.8,1C201.3,62.6,200.6,62.1,199.7,61.6z M211.8,74.2c-0.2,0.2-0.5,0.3-0.9,0.3h-4.6
		c-1,0-1.5-0.4-1.5-1.3v-4.2c-0.5,0.5-1.1,1-1.7,1.4c-0.1-0.3-0.4-0.6-0.8-1c0.5-0.3,1.1-0.6,1.8-1.2c0.6-0.5,1.1-1.2,1.4-1.9H205
		c-0.8,0-1.6,0-2.3,0.1v-1c0.7,0,1.4,0.1,2.3,0.1h0.5v-2.1h-0.6c-0.4,0-0.9,0-1.6,0.1v-1c0.7,0,1.3,0.1,1.8,0.1h0.4
		c0-0.8,0-1.5-0.1-2.1h1.2c0,0.5-0.1,1.2-0.1,2.1h2.7c0-0.9,0-1.6-0.1-2.1h1.2c0,0.5-0.1,1.2-0.1,2.1h0.6c0.6,0,1.2,0,1.9-0.1v1
		c-0.6,0-1.2-0.1-1.8-0.1h-0.6v2.1h1.1c0.5,0,1.1,0,1.8-0.1v1c-0.7,0-1.2-0.1-1.7-0.1h-1.3c0.7,1.3,1.9,2.3,3.6,3.1
		c-0.3,0.2-0.6,0.5-0.9,1c-0.9-0.5-1.6-1.1-2.2-1.6v1.6c0,0.3,0,0.8,0.1,1.3h-4.9v1.3c0,0.5,0.3,0.7,0.8,0.7h3.5
		c0.3,0,0.5-0.1,0.6-0.2c0.2-0.1,0.3-0.5,0.5-1.2c0.3,0.3,0.8,0.5,1.3,0.6C212.3,73.5,212,74,211.8,74.2z M210.4,68.4
		c-0.5-0.5-0.9-1.3-1.3-2.1h-2.5c-0.3,0.8-0.8,1.5-1.3,2.1H210.4z M209.5,70.7v-1.3h-3.7v1.3H209.5z M209.2,65.4v-2.1h-2.7v2.1
		H209.2z"/>
	<path class="st1" d="M217.4,71.9c-0.4,1-0.7,1.7-0.9,2.3c-0.3-0.3-0.8-0.5-1.3-0.8c0.4-0.4,0.8-1.2,1.3-2.3
		c0.5-1.1,0.8-2.1,1.1-2.9c0.3,0.3,0.7,0.6,1,0.8C218.1,70,217.7,71,217.4,71.9z M218.6,65.9c-0.3,0.3-0.6,0.6-0.9,0.9
		c-0.6-0.7-1.3-1.3-2.2-2c0.3-0.3,0.5-0.6,0.8-0.9C217,64.6,217.8,65.2,218.6,65.9z M219,62.2c-0.4,0.3-0.7,0.6-0.9,0.9
		c-0.5-0.5-1.2-1.2-2.1-1.9c0.3-0.3,0.5-0.6,0.8-0.8C217.7,61,218.4,61.7,219,62.2z M227.5,68.4c-0.3,0.8-0.7,1.5-1.1,2
		c-0.4,0.6-0.9,1.2-1.6,1.8c0.7,0.3,1.4,0.6,2.3,0.8c0.9,0.2,1.6,0.3,2.3,0.3c-0.3,0.4-0.5,0.8-0.6,1.3c-1-0.2-1.9-0.4-2.6-0.6
		c-0.7-0.2-1.5-0.5-2.3-1c-0.6,0.4-1.2,0.7-1.9,0.9c-0.7,0.3-1.5,0.5-2.4,0.7c-0.1-0.3-0.3-0.7-0.7-1.1c0.7,0,1.5-0.2,2.3-0.4
		c0.8-0.2,1.5-0.5,2-0.8c-0.8-0.8-1.5-1.7-2-2.8c-0.2,0-0.3,0-0.5,0v-1.1c0.7,0,1.4,0.1,2.1,0.1H227.5z M229.3,67.8
		c0,0.3,0,0.6,0.1,0.9h-1.2v-1.3h-8.1v1.4h-1.2c0-0.3,0.1-0.7,0.1-1c0-0.4,0-0.8-0.1-1.4h10.4C229.3,66.9,229.3,67.4,229.3,67.8z
		 M228.1,60.7c0,0.5-0.1,1.3-0.1,2.4c0,1.1,0,1.9,0.1,2.5h-5.8c-0.8,0-1.5,0-2.3,0.1v-1.1c0.7,0,1.5,0.1,2.3,0.1h4.5v-1.1h-4.3
		c-0.8,0-1.4,0-1.9,0.1v-1.1c0.5,0,1.1,0.1,1.8,0.1h4.4v-1.1h-4.6c-0.7,0-1.4,0-2.1,0.1v-1.1c0.7,0,1.5,0.1,2.3,0.1H228.1z
		 M222.3,69.4c0.5,0.9,1,1.7,1.6,2.3c0.7-0.7,1.3-1.4,1.8-2.3h-3H222.3z"/>
	<path class="st1" d="M245.6,65.8c-0.4,0.3-0.7,0.7-0.9,1.1c-2.8-1.3-5-3-6.4-5c-2,2.2-4.1,4-6.4,5.3c-0.4-0.6-0.8-0.9-1.1-1.1
		c1.5-0.5,3-1.4,4.4-2.7c1.4-1.3,2.3-2.4,2.8-3.4c0.4,0.3,0.8,0.5,1.3,0.7l-0.4,0.4C240.4,63.2,242.7,64.8,245.6,65.8z M234.9,73
		c2.8-0.1,4.9-0.2,6.4-0.3c-0.4-0.4-0.9-1-1.7-1.6c0.3-0.3,0.6-0.5,0.9-0.8c0.6,0.5,1.1,1.1,1.7,1.6c0.5,0.5,1.2,1.2,1.9,1.9
		c-0.3,0.3-0.6,0.6-1.1,0.9c-0.4-0.5-0.7-0.9-0.9-1.1c-1,0-2.5,0.1-4.7,0.3c-2.1,0.1-3.5,0.3-4.2,0.4c-0.2-0.5-0.4-1-0.5-1.3
		c0.7-0.2,1.5-0.7,2.4-1.6c0.9-0.9,1.6-1.6,1.9-2.1h-1.8c-1.1,0-2.2,0-3.1,0.1v-1.1c1,0,2,0.1,3.1,0.1h6.3c1,0,2.1,0,3.1-0.1v1.1
		c-1,0-2.1-0.1-3.3-0.1h-3.8c0.3,0.3,0.6,0.6,0.9,0.8C238,70.3,236.9,71.3,234.9,73z M239.4,65.6c0.9,0,1.7,0,2.3-0.1v1.1
		c-0.6,0-1.4-0.1-2.3-0.1h-2.7c-0.8,0-1.5,0-2,0.1v-1.1c0.5,0,1.2,0.1,1.9,0.1H239.4z"/>
	<path class="st1" d="M253.5,64.6c0-1.5,0.1-2.4,0-2.9c0-0.5-0.1-1-0.1-1.4c0.5,0.1,1.1,0.1,1.7,0.2c-0.1,0.4-0.2,1-0.3,1.8
		c-0.1,0.8-0.1,1.6-0.1,2.4h3.2c1.1,0,2.2,0,3.1-0.1v1.4c-0.8,0-1.7-0.1-2.6-0.1h-3.7c0.2,0.7,0.5,1.4,0.9,2.2
		c0.4,0.7,0.8,1.4,1.3,1.9s1,1.2,1.8,1.8c0.8,0.6,1.6,1.1,2.5,1.6c-0.3,0.3-0.7,0.7-1,1.3c-0.8-0.4-1.5-0.9-2.2-1.6
		c-0.7-0.6-1.5-1.4-2.2-2.5c-0.7-1-1.3-2-1.7-2.8c-0.3,0.9-0.7,1.7-1.1,2.3c-0.4,0.6-0.8,1.2-1.2,1.7s-1,1-1.7,1.5s-1.5,1-2.3,1.5
		c-0.3-0.5-0.7-0.9-1.1-1.3c0.9-0.3,1.7-0.7,2.6-1.3c0.9-0.5,1.6-1.2,2.1-1.8c0.5-0.7,1-1.4,1.3-2.2c0.3-0.8,0.5-1.5,0.6-2.2H250
		c-1,0-1.8,0-2.4,0.1v-1.4c0.6,0,1.4,0.1,2.4,0.1H253.5z"/>
	<path class="st1" d="M274.5,66.4v1.3c-0.6,0.1-1.1,0.3-1.6,0.6c-0.5,0.3-1,0.6-1.7,0.8v0.6h3.9c0.5,0,1.1,0,1.9-0.1v1.3
		c-0.8,0-1.5-0.1-1.9-0.1h-3.9v2.6c0,0.6-0.2,0.9-0.7,1.1c-0.5,0.1-1.2,0.3-2.3,0.3c-0.1-0.5-0.3-0.9-0.6-1.4h1.7
		c0.4,0,0.6-0.2,0.6-0.7v-1.9h-4.3c-0.7,0-1.4,0-2.3,0.1v-1.3c0.9,0,1.6,0.1,2.2,0.1h4.4c0-0.3,0-0.7-0.1-1.1l2.3-1.1h-3.4
		c-0.8,0-1.7,0-2.7,0.1v-1.2c0.9,0,1.8,0.1,2.6,0.1H274.5z M273.5,63.6h3.4c0,0.4-0.1,0.8-0.1,1.3s0,1,0.1,1.4h-1.3v-1.7h-10.8v1.8
		h-1.3c0-0.5,0.1-1,0.1-1.5s0-0.9-0.1-1.3h8.7c0.3-0.6,0.7-1.2,1-1.8c0.4-0.6,0.6-1.3,0.8-1.9c0.7,0.4,1.2,0.6,1.6,0.8
		C274.8,61.7,274.1,62.6,273.5,63.6z M267.4,62.4c-0.5,0.3-0.8,0.6-1.1,0.9c-0.5-0.8-1.2-1.5-1.9-2.1c0.5-0.3,0.8-0.6,1-0.8
		C266.2,61.1,266.8,61.8,267.4,62.4z M271.2,62.3c-0.4,0.3-0.8,0.6-1.2,0.8c-0.3-0.7-0.8-1.4-1.5-2.3c0.4-0.3,0.8-0.5,1.1-0.8
		C270.5,61.1,271,61.8,271.2,62.3z"/>
</g>
<g>
	<path class="st1" d="M300.2,43.1c1.1,0,2.3,0,3.7-0.1v2.4c-1-0.1-2-0.1-2.8-0.1v18.7c1-0.3,2-0.5,2.8-0.7c-0.2,1.2-0.2,2-0.1,2.4
		c-1.1,0.2-2,0.4-2.7,0.6v3.2c0,1.4,0,3,0.1,4.8h-3c0.2-1.8,0.3-3.4,0.3-4.8v-2.7c-1,0.2-2.3,0.5-3.9,1c-1.5,0.5-3.2,1-5,1.7
		c-0.1-0.7-0.4-1.7-1-3.2c0.6,0,1.5-0.1,3-0.4V45.2c-0.9,0-1.8,0.1-2.7,0.3v-2.5c1.1,0.1,2.3,0.1,3.5,0.1H300.2z M298.5,50.1v-4.9
		h-4.4v4.9H298.5z M298.5,57.8v-5.5h-4.4v5.5H298.5z M298.5,60.1h-4.4v5.2c1-0.2,2.5-0.5,4.4-0.8V60.1z M316.2,45.1
		c-0.3,0.7-0.9,1.8-1.8,3.3c2,0,3.8,0,5.5-0.1v2.5c-1.7-0.2-3.1-0.3-4.4-0.3h-2.8c-0.1,3.5-0.2,5.9-0.3,7.3h4.1c1.1,0,2.5,0,4.1-0.1
		v2.5c-1.6-0.1-3-0.1-4.1-0.1h-3.7c0.6,2.5,1.7,4.8,3.4,6.8s3.6,3.2,5.6,3.7c-0.7,0.6-1.1,1.1-1.5,1.6c-0.3,0.5-0.5,1.1-0.6,1.8
		c-2-1.4-3.6-3-4.9-4.6c-1.3-1.7-2.4-3.8-3.2-6.3c-0.7,2.2-1.5,4.1-2.5,5.9c-1,1.8-2.3,3.6-3.9,5.3c-0.3-0.4-0.7-0.8-1.3-1.3
		c-0.6-0.5-1-0.7-1.3-0.7c1.3-0.8,2.6-2.2,3.7-4c1.2-1.8,1.9-3.3,2.3-4.5c0.4-1.2,0.7-2.4,0.8-3.6h-1.7c-1.5,0-3.1,0-4.8,0.1v-2.5
		c1.7,0.1,3.3,0.1,4.8,0.1h2c0.2-2.7,0.3-5.2,0.3-7.3h-1.4c-1.3,0-2.9,0.1-4.6,0.3v-2.5c1.8,0.1,3.3,0.1,4.6,0.1h3.5
		c1.1-2.6,2-5.1,2.5-7.5c0.6,0.4,1.6,0.9,3.1,1.5C317,43.5,316.5,44.4,316.2,45.1z M310.1,46.4c-1.1,0.5-1.9,0.9-2.3,1.4
		c-0.5-1.1-1.5-2.9-3-5.3c0.3-0.1,0.9-0.5,2-1.3C308.5,43.9,309.6,45.6,310.1,46.4z"/>
	<path class="st1" d="M344.8,43.3c2.7,3.3,4.9,5.5,6.6,6.8c1.7,1.2,3.2,2.2,4.6,2.8c1.4,0.7,2.8,1.2,4.1,1.5c-0.9,1-1.5,2-1.8,3
		c-1.9-0.8-3.6-1.7-5.1-2.7c-1.5-0.9-3-2.1-4.6-3.6c-1.5-1.5-3.3-3.4-5.3-6c-1.8,2.5-3.5,4.6-5.3,6.3c-1.7,1.6-3.2,2.9-4.4,3.9
		c-1.2,0.9-2.6,1.9-4.1,2.8c-0.2-0.4-0.9-1.1-2.3-2.3c2-0.9,3.8-2.1,5.6-3.4c1.8-1.3,3.6-3,5.3-5c1.8-2,3.2-4.2,4.4-6.5
		c1,0.7,2,1.2,2.8,1.5L344.8,43.3z M354.1,66.7c0,3.4,0,5.6,0.1,6.6h-3v-2.7h-15.6v3.1h-2.8c0.1-1.1,0.1-3.3,0.1-6.5
		c0-3.3,0-5.6-0.1-7h21.4C354.1,61.1,354.1,63.3,354.1,66.7z M347.9,54.4c1.5,0,2.8,0,3.9-0.1V57c-1.2-0.1-2.5-0.1-3.8-0.1h-7.9
		c-2,0-3.6,0-4.8,0.1v-2.7c1.8,0.1,3.4,0.1,4.8,0.1H347.9z M351.3,68.4v-5.9h-15.6v5.9H351.3z"/>
	<path class="st1" d="M396.9,50.2v15c0,2.9,0,5.8,0.1,8.6h-2.8v-2h-23.3V74h-2.8c0.1-2.9,0.1-5.9,0.1-9V50.2c0-2.8,0-5.4-0.1-7.9h29
		C396.9,44.7,396.9,47.3,396.9,50.2z M394.2,69.8V44.5h-23.3v25.3H394.2z M386.9,48.3c1.4,0,2.9,0,4.5-0.1v2.5
		c-1.4-0.1-2.9-0.1-4.5-0.1h-3.5v4.6h2.5c1.7,0,3.3,0,4.8-0.1v2.5c-1.5-0.1-3.1-0.1-4.8-0.1h-2.5v6.3h3.9c1.7,0,3.3,0,4.8-0.1v2.5
		c-1.4-0.1-3-0.1-4.8-0.1h-9.6c-1.6,0-3.2,0-4.8,0.1v-2.5c1.6,0.1,3.2,0.1,4.8,0.1h3.1v-6.3h-2c-1.6,0-3.1,0-4.5,0.1V55
		c1.4,0.1,2.9,0.1,4.5,0.1h2v-4.6h-2.1c-1.7,0-3.3,0-4.9,0.1v-2.5c1.6,0.1,3.2,0.1,4.9,0.1H386.9z M390.1,61.3
		c-0.9,0.6-1.7,1.1-2.4,1.5c-0.3-0.4-1.1-1.4-2.4-3c0.7-0.6,1.4-1.1,2-1.5C387.8,58.9,388.7,59.8,390.1,61.3z"/>
	<path class="st1" d="M415.9,47.3c-0.7,2.3-1.4,4.5-2.1,6.8c1.2,1.9,2,3.5,2.5,4.8c0.4,1.3,0.5,2.5,0.3,3.6c-0.2,1.1-0.9,2-2,2.8
		c-1.1,0.8-2.3,1.3-3.7,1.5c-0.5-1.5-0.9-2.6-1.3-3.2c2.1,0,3.3-0.4,3.7-1.1s0.5-1.5,0.3-2.5c-0.2-1-0.6-1.9-1-2.9
		c-0.4-0.9-1-1.9-1.8-2.8c0.5-1.3,0.9-2.8,1.4-4.4c0.5-1.6,0.9-3.1,1.4-4.6H409v28.1h-3c0.1-2.6,0.1-5.2,0.1-7.7V48.8
		c0-2.1,0-4.1-0.1-6h11.3C417,43.5,416.5,45,415.9,47.3z M418.2,63.7c0.8-1.8,1.5-3.7,2.2-5.6c0.7,0.3,1.7,0.7,3,1.3
		c-0.9,1.7-1.8,3.5-2.6,5.3c-0.8,1.9-1.7,3.8-2.6,5.8c-0.8-0.4-1.7-0.8-2.8-1.3C416.5,67.3,417.4,65.5,418.2,63.7z M432.8,51.8
		c1.5,0,3,0,4.5-0.1v2.7c-1.2-0.1-2.6-0.1-4.1-0.1h-4.6v15.8c0,1.5-0.5,2.4-1.5,2.6c-1,0.2-2.4,0.5-4.2,0.8
		c-0.1-1.1-0.5-2.3-1.1-3.4c1.9,0,3,0,3.4-0.1c0.4-0.1,0.6-0.4,0.6-1V54.2h-3.5c-2.1,0-3.8,0-5.1,0.1v-2.7c2.1,0.1,3.7,0.1,5.1,0.1
		H432.8z M431.2,43.5c1.5,0,2.8-0.1,3.9-0.3v2.7c-1.1-0.1-2.4-0.1-3.9-0.1h-7.5c-1.6,0-3,0-4.2,0.1v-2.7c1.1,0.2,2.6,0.3,4.5,0.3
		H431.2z M438.1,68.4c-0.9,0.4-1.9,0.8-3,1.4c-1.4-3.5-3-6.9-4.9-10.3c0.6-0.3,1.5-0.8,2.7-1.5C435.3,62.6,437,66,438.1,68.4z"/>
	<path class="st1" d="M469.4,55.3v3c-1.3,0.3-2.5,0.7-3.6,1.3c-1.1,0.6-2.3,1.2-3.7,1.9v1.3h8.9c1.1,0,2.6,0,4.4-0.1v2.8
		c-1.9-0.1-3.3-0.1-4.4-0.1H462V71c0,1.3-0.5,2.1-1.5,2.5c-1,0.3-2.7,0.6-5.1,0.8c-0.3-1-0.8-2.1-1.4-3.1h3.8c0.9,0,1.4-0.5,1.4-1.5
		v-4.4h-9.7c-1.5,0-3.2,0-5.1,0.1v-2.8c2,0.1,3.6,0.1,4.9,0.1h9.8c0-0.7-0.1-1.6-0.3-2.5l5.1-2.5h-7.7c-1.8,0-3.8,0-6,0.1v-2.7
		c2.1,0.1,4,0.1,5.9,0.1H469.4z M467.3,49h7.7c-0.1,0.8-0.1,1.8-0.1,3s0,2.2,0.1,3.2h-3v-3.8h-24.3v3.9h-3c0.1-1.1,0.1-2.3,0.1-3.4
		s0-2.1-0.1-3h19.5c0.7-1.3,1.5-2.7,2.3-4.1c0.8-1.5,1.4-2.9,1.9-4.3c1.5,0.8,2.7,1.5,3.5,1.8C470.2,44.5,468.6,46.7,467.3,49z
		 M453.3,46.3c-1,0.8-1.8,1.5-2.4,2.1c-1.2-1.8-2.6-3.3-4.2-4.6c1-0.7,1.8-1.4,2.3-1.8C450.7,43.3,452.1,44.8,453.3,46.3z M462,45.9
		c-0.8,0.7-1.7,1.3-2.7,1.8c-0.8-1.5-1.9-3.2-3.4-5.1c0.9-0.7,1.8-1.2,2.5-1.7C460.3,43.2,461.5,44.8,462,45.9z"/>
	<path class="st1" d="M492,48.4c-0.6,1.9-1.2,3.8-1.8,5.6c1.8,2.3,2.9,4,3.4,5.3c0.5,1.3,0.6,2.5,0.3,3.7c-0.3,1.2-0.9,2.2-1.8,2.8
		c-0.9,0.7-2.2,1-3.8,1c0-1-0.2-2.1-0.6-3.2c1.8,0.3,2.8,0.1,3.2-0.6c0.3-0.7,0.4-1.5,0.3-2.4c-0.1-0.9-0.5-1.9-1.2-2.9
		c-0.7-1-1.5-2-2.4-3.2c0.4-1.2,0.8-2.6,1.3-4.1c0.5-1.5,0.9-3.1,1.2-4.6h-3.9V74h-2.7c0.1-1.8,0.1-3.9,0.1-6.5V49.7
		c0-2.1,0-4-0.1-5.8h10.1C493.1,45,492.6,46.5,492,48.4z M508.5,58c1.7,0,3.2,0,4.6-0.1v2.4c-1.4-0.1-2.4-0.1-3-0.1h-2.4v8.9
		c0,1.1,0.4,1.7,1.2,1.8c0.8,0,1.5,0,2,0c0.6,0,1-0.3,1.2-0.8c0.2-0.5,0.4-1.4,0.5-2.8c0.8,0.6,1.7,1,2.7,1.3
		c-0.5,2.4-1.1,3.8-2,4.2c-0.9,0.4-2.5,0.5-4.8,0.4c-2.3-0.1-3.4-1.3-3.3-3.7v-9.3H502c0.1,2.3-0.1,4.5-0.7,6.5
		c-0.6,2-1.5,3.6-3,4.8s-2.9,2-4.5,2.6c-0.4-0.8-1.1-1.5-2.1-2.1c3.9-1.2,6.2-2.9,6.9-5c0.7-2.1,0.9-4.4,0.8-6.8
		c-2.2,0-3.7,0-4.6,0.1v-2.4c1.2,0.1,2.7,0.1,4.4,0.1H508.5z M514.1,48.3c0,0.8,0,1.7,0.1,2.7h-2.8v-3.2h-14.1v3.1h-2.8
		c0.1-0.8,0.1-1.6,0.1-2.4c0-0.7,0-1.6-0.1-2.7h19.7C514.2,46.6,514.1,47.4,514.1,48.3z M506.4,52.3c2,0,3.5,0,4.6-0.1v2.4
		c-1.2-0.1-2.8-0.1-4.6-0.1h-4.1c-2.1,0-3.8,0-5.1,0.1v-2.4c1.2,0.1,2.9,0.1,4.9,0.1H506.4z M503.8,45.6c-0.5-1-1.3-2.3-2.5-3.7
		c0.8-0.4,1.5-0.8,2.1-1.4c1.5,2,2.4,3.2,2.8,3.8C505.4,44.6,504.6,45,503.8,45.6z"/>
</g>
<g>
	<path class="st1" d="M191,100.1c0,0.9-0.3,1.6-0.8,1.9c-0.5,0.3-1.2,0.5-1.9,0.5h-2.4v-8.1h2.5c0.8,0,1.4,0.2,1.8,0.6
		c0.4,0.4,0.6,0.9,0.6,1.5c0,0.6-0.1,1-0.4,1.3c-0.3,0.3-0.5,0.5-0.8,0.5c0.4,0.1,0.7,0.3,1,0.6C190.8,99.2,191,99.6,191,100.1z
		 M189.6,96.5c0-0.4-0.1-0.7-0.4-0.9c-0.2-0.2-0.5-0.3-0.9-0.3H187v2.5h1.4c0.3,0,0.6-0.1,0.9-0.3C189.5,97.3,189.6,97,189.6,96.5z
		 M189.8,100.1c0-0.5-0.2-0.9-0.5-1.1c-0.3-0.2-0.7-0.3-1.1-0.3H187v2.9h1.1c0.6,0,1-0.1,1.3-0.3
		C189.7,101.1,189.8,100.7,189.8,100.1z"/>
	<path class="st1" d="M197,102.6h-4.8v-8.1h4.6v0.9h-3.5v2.5h3.2v0.9h-3.2v2.9h3.8V102.6z"/>
	<path class="st1" d="M201.1,102.6H200v-8.1h1.1V102.6z"/>
	<path class="st1" d="M209,99.8c0,1-0.2,1.7-0.6,2.1c-0.4,0.4-1,0.7-1.7,0.7c-0.7,0-1.2-0.2-1.7-0.6c-0.4-0.4-0.7-1.1-0.7-2.1v-0.5
		h1.1v0.7c0,0.6,0.1,1,0.4,1.2c0.2,0.2,0.5,0.4,0.8,0.4c0.4,0,0.8-0.1,1-0.4c0.2-0.3,0.3-0.7,0.3-1.4v-5.5h1.1V99.8z"/>
	<path class="st1" d="M213.2,102.6h-1.1v-8.1h1.1V102.6z"/>
	<path class="st1" d="M221.2,102.6H220l-2.6-5.9h0v5.9h-1.1v-8.1h1.2l2.6,5.9h0v-5.9h1.1V102.6z"/>
	<path class="st1" d="M227.3,102.6h-0.8l-0.1-0.7c-0.1,0.2-0.3,0.3-0.6,0.5c-0.3,0.1-0.6,0.2-0.9,0.2c-0.7,0-1.3-0.3-1.8-0.9
		c-0.5-0.6-0.8-1.6-0.8-3c0-1.5,0.2-2.6,0.7-3.3s1.1-1.1,1.9-1.1c0.7,0,1.3,0.3,1.7,0.8c0.4,0.5,0.6,1.2,0.6,2.1h-1
		c0-0.7-0.1-1.2-0.3-1.5c-0.2-0.3-0.5-0.5-1-0.5c-0.5,0-0.9,0.3-1.1,0.8c-0.3,0.5-0.4,1.4-0.4,2.6c0,1.2,0.2,2,0.5,2.4
		c0.3,0.4,0.7,0.7,1.1,0.7c0.4,0,0.7-0.2,1-0.5c0.2-0.3,0.4-0.8,0.4-1.4v-0.5h-1.5v-0.9h2.4V102.6z"/>
	<path class="st1" d="M239.5,102.6h-1.2l-2.6-5.9h0v5.9h-1.1v-8.1h1.2l2.6,5.9h0v-5.9h1.1V102.6z"/>
	<path class="st1" d="M245.8,98.5c0,1.5-0.2,2.6-0.7,3.2c-0.5,0.7-1.1,1-1.9,1s-1.5-0.3-1.9-1c-0.5-0.6-0.7-1.7-0.7-3.2
		s0.2-2.6,0.7-3.2s1.1-1,1.9-1s1.5,0.3,1.9,1C245.5,95.9,245.8,97,245.8,98.5z M244.6,98.5c0-1.3-0.1-2.2-0.4-2.6
		c-0.3-0.4-0.6-0.6-1-0.6c-0.4,0-0.8,0.2-1.1,0.6c-0.3,0.4-0.5,1.3-0.5,2.6c0,1.3,0.1,2.2,0.5,2.6c0.3,0.4,0.7,0.6,1.1,0.6
		c0.4,0,0.8-0.2,1-0.6C244.5,100.7,244.6,99.8,244.6,98.5z"/>
	<path class="st1" d="M251.9,102.6h-1.1l-1.7-3.5h-1.2v3.5h-1.1v-8.1h2.4c0.8,0,1.4,0.2,1.9,0.5c0.5,0.4,0.7,1,0.7,1.8
		c0,0.6-0.2,1.1-0.5,1.5c-0.3,0.3-0.7,0.6-1.1,0.7L251.9,102.6z M250.6,96.8c0-0.4-0.1-0.8-0.4-1c-0.3-0.3-0.7-0.4-1.3-0.4h-1v2.8
		h1.3c0.4,0,0.7-0.1,1-0.3C250.5,97.6,250.6,97.3,250.6,96.8z"/>
	<path class="st1" d="M257.9,102.6h-1v-5.8h-0.1l-1.1,5.8h-0.8l-1.1-5.8h-0.1v5.8h-1v-8.1h1.5l1,5.4h0.1l1-5.4h1.5V102.6z"/>
	<path class="st1" d="M264.2,102.6h-1.1l-0.7-2.5h-2.1l-0.7,2.5h-1.1l2.4-8.2h1L264.2,102.6z M262.2,99.1l-0.8-2.9h-0.1l-0.8,2.9
		H262.2z"/>
	<path class="st1" d="M270,102.6h-4.9v-8.1h1.1v7.2h3.9V102.6z"/>
	<path class="st1" d="M282.1,100.2c0,0.8-0.2,1.4-0.6,1.8c-0.4,0.4-1,0.7-1.9,0.7c-0.9,0-1.5-0.2-1.9-0.7c-0.4-0.4-0.6-1-0.6-1.8
		v-5.8h1.1v5.8c0,0.5,0.1,0.9,0.4,1.2c0.3,0.3,0.6,0.4,1,0.4c0.4,0,0.7-0.1,1-0.4c0.3-0.3,0.4-0.6,0.4-1.2v-5.8h1.1V100.2z"/>
	<path class="st1" d="M288.2,102.6H287l-2.6-5.9h0v5.9h-1.1v-8.1h1.2l2.6,5.9h0v-5.9h1.1V102.6z"/>
	<path class="st1" d="M292.3,102.6h-1.1v-8.1h1.1V102.6z"/>
	<path class="st1" d="M300.7,94.4l-2.4,8.2h-1l-2.4-8.2h1.1l1.7,6.2h0.1l1.7-6.2H300.7z"/>
	<path class="st1" d="M306.5,102.6h-4.8v-8.1h4.6v0.9h-3.5v2.5h3.2v0.9h-3.2v2.9h3.8V102.6z"/>
	<path class="st1" d="M312.8,102.6h-1.1l-1.7-3.5h-1.2v3.5h-1.1v-8.1h2.4c0.8,0,1.4,0.2,1.9,0.5c0.5,0.4,0.7,1,0.7,1.8
		c0,0.6-0.2,1.1-0.5,1.5c-0.3,0.3-0.7,0.6-1.1,0.7L312.8,102.6z M311.5,96.8c0-0.4-0.1-0.8-0.4-1c-0.3-0.3-0.7-0.4-1.3-0.4h-1v2.8
		h1.3c0.4,0,0.7-0.1,1-0.3C311.3,97.6,311.5,97.3,311.5,96.8z"/>
	<path class="st1" d="M318.7,100.3c0,0.7-0.2,1.3-0.7,1.7c-0.5,0.4-1.1,0.6-1.9,0.6c-0.8,0-1.4-0.2-1.9-0.7c-0.4-0.4-0.7-1-0.7-1.7
		V100h1.1v0.3c0,0.5,0.1,0.8,0.4,1.1c0.3,0.3,0.6,0.4,1,0.4c0.5,0,0.9-0.1,1.1-0.4c0.2-0.3,0.4-0.6,0.4-1c0-0.3-0.1-0.6-0.4-0.9
		c-0.3-0.3-0.7-0.5-1.2-0.7c-0.8-0.3-1.3-0.6-1.6-1c-0.3-0.3-0.5-0.8-0.5-1.2c0-0.7,0.2-1.2,0.7-1.6c0.5-0.4,1-0.6,1.6-0.6
		c0.8,0,1.4,0.2,1.8,0.7c0.4,0.5,0.5,1,0.5,1.6h-1.1c0-0.3-0.1-0.7-0.3-1c-0.2-0.3-0.5-0.4-1-0.4c-0.4,0-0.7,0.1-0.9,0.3
		c-0.2,0.2-0.3,0.5-0.3,0.8c0,0.3,0.1,0.5,0.3,0.7c0.2,0.2,0.6,0.5,1.4,0.7c0.7,0.3,1.2,0.6,1.6,1
		C318.5,99.3,318.7,99.8,318.7,100.3z"/>
	<path class="st1" d="M322.8,102.6h-1.1v-8.1h1.1V102.6z"/>
	<path class="st1" d="M330.8,95.3h-1.9v7.2h-1.1v-7.2h-1.9v-0.9h4.9V95.3z"/>
	<path class="st1" d="M337.2,94.4l-2.2,4.5v3.7h-1.1v-3.7l-2.2-4.5h1.1l1.7,3.5h0l1.7-3.5H337.2z"/>
	<path class="st1" d="M342.6,97.5h1.9v1.9h-1.9V97.5z"/>
	<path class="st1" d="M355.1,102.6H354v-3.8h-2.7v3.8h-1.1v-8.1h1.1v3.4h2.7v-3.4h1.1V102.6z"/>
	<path class="st1" d="M361.4,98.5c0,1.5-0.2,2.6-0.7,3.2c-0.5,0.7-1.1,1-1.9,1s-1.5-0.3-1.9-1c-0.5-0.6-0.7-1.7-0.7-3.2
		s0.2-2.6,0.7-3.2s1.1-1,1.9-1s1.5,0.3,1.9,1C361.1,95.9,361.4,97,361.4,98.5z M360.2,98.5c0-1.3-0.1-2.2-0.4-2.6
		c-0.3-0.4-0.6-0.6-1-0.6c-0.4,0-0.8,0.2-1.1,0.6c-0.3,0.4-0.5,1.3-0.5,2.6c0,1.3,0.1,2.2,0.5,2.6c0.3,0.4,0.7,0.6,1.1,0.6
		c0.4,0,0.8-0.2,1-0.6C360.1,100.7,360.2,99.8,360.2,98.5z"/>
	<path class="st1" d="M367.3,102.6h-1.2l-2.6-5.9h0v5.9h-1.1v-8.1h1.2l2.6,5.9h0v-5.9h1.1V102.6z"/>
	<path class="st1" d="M373.4,102.6h-0.8l-0.1-0.7c-0.1,0.2-0.3,0.3-0.6,0.5c-0.3,0.1-0.6,0.2-0.9,0.2c-0.7,0-1.3-0.3-1.8-0.9
		c-0.5-0.6-0.8-1.6-0.8-3c0-1.5,0.2-2.6,0.7-3.3c0.5-0.7,1.1-1.1,2-1.1c0.7,0,1.3,0.3,1.7,0.8c0.4,0.5,0.6,1.2,0.6,2.1h-1
		c0-0.7-0.1-1.2-0.3-1.5s-0.5-0.5-1-0.5c-0.5,0-0.9,0.3-1.1,0.8c-0.3,0.5-0.4,1.4-0.4,2.6c0,1.2,0.2,2,0.5,2.4
		c0.3,0.4,0.7,0.7,1.1,0.7s0.7-0.2,1-0.5c0.2-0.3,0.4-0.8,0.4-1.4v-0.5h-1.5v-0.9h2.4V102.6z"/>
	<path class="st1" d="M385.9,102.6h-1.2l-2.2-4l-0.8,1v3h-1.1v-8.1h1.1v3.5l2.7-3.5h1.3l-2.5,3.2L385.9,102.6z"/>
	<path class="st1" d="M391.8,98.5c0,1.5-0.2,2.6-0.7,3.2c-0.5,0.7-1.1,1-1.9,1s-1.5-0.3-1.9-1c-0.5-0.6-0.7-1.7-0.7-3.2
		s0.2-2.6,0.7-3.2s1.1-1,1.9-1s1.5,0.3,1.9,1C391.6,95.9,391.8,97,391.8,98.5z M390.7,98.5c0-1.3-0.1-2.2-0.4-2.6s-0.6-0.6-1-0.6
		s-0.8,0.2-1.1,0.6c-0.3,0.4-0.5,1.3-0.5,2.6c0,1.3,0.2,2.2,0.5,2.6c0.3,0.4,0.7,0.6,1.1,0.6s0.8-0.2,1-0.6
		C390.5,100.7,390.7,99.8,390.7,98.5z"/>
	<path class="st1" d="M397.7,102.6h-1.2l-2.6-5.9h0v5.9h-1.1v-8.1h1.2l2.6,5.9h0v-5.9h1.1V102.6z"/>
	<path class="st1" d="M403.8,102.6H403l-0.1-0.7c-0.1,0.2-0.3,0.3-0.6,0.5c-0.3,0.1-0.6,0.2-0.9,0.2c-0.7,0-1.3-0.3-1.8-0.9
		c-0.5-0.6-0.8-1.6-0.8-3c0-1.5,0.2-2.6,0.7-3.3c0.5-0.7,1.1-1.1,2-1.1c0.7,0,1.3,0.3,1.7,0.8c0.4,0.5,0.6,1.2,0.6,2.1h-1
		c0-0.7-0.1-1.2-0.3-1.5s-0.5-0.5-1-0.5c-0.5,0-0.9,0.3-1.1,0.8c-0.3,0.5-0.4,1.4-0.4,2.6c0,1.2,0.2,2,0.5,2.4
		c0.3,0.4,0.7,0.7,1.1,0.7s0.7-0.2,1-0.5c0.2-0.3,0.4-0.8,0.4-1.4v-0.5h-1.5v-0.9h2.4V102.6z"/>
	<path class="st1" d="M416.2,100.1c0,0.9-0.3,1.6-0.8,1.9c-0.5,0.3-1.2,0.5-1.9,0.5h-2.4v-8.1h2.5c0.8,0,1.4,0.2,1.8,0.6
		c0.4,0.4,0.6,0.9,0.6,1.5c0,0.6-0.1,1-0.4,1.3c-0.3,0.3-0.5,0.5-0.8,0.5c0.4,0.1,0.7,0.3,1,0.6C416,99.2,416.2,99.6,416.2,100.1z
		 M414.8,96.5c0-0.4-0.1-0.7-0.4-0.9c-0.2-0.2-0.5-0.3-0.9-0.3h-1.4v2.5h1.4c0.3,0,0.6-0.1,0.9-0.3C414.7,97.3,414.8,97,414.8,96.5z
		 M415,100.1c0-0.5-0.2-0.9-0.5-1.1c-0.3-0.2-0.7-0.3-1.1-0.3h-1.2v2.9h1.1c0.6,0,1-0.1,1.3-0.3C414.9,101.1,415,100.7,415,100.1z"
		/>
	<path class="st1" d="M422.5,102.6h-1.1l-0.7-2.5h-2.1l-0.7,2.5h-1.1l2.4-8.2h1L422.5,102.6z M420.4,99.1l-0.8-2.9h-0.1l-0.8,2.9
		H420.4z"/>
	<path class="st1" d="M428.3,96.9c0,0.8-0.2,1.4-0.7,1.8c-0.4,0.4-1.1,0.7-1.9,0.7h-1.4v3.2h-1.1v-8.1h2.5c0.8,0,1.4,0.2,1.9,0.7
		C428.1,95.5,428.3,96.1,428.3,96.9z M427.2,96.9c0-0.6-0.1-1-0.4-1.2c-0.3-0.2-0.7-0.3-1.3-0.3h-1.1v3.1h1.1c0.6,0,1-0.1,1.3-0.3
		S427.2,97.5,427.2,96.9z"/>
	<path class="st1" d="M434.2,95.3h-1.9v7.2h-1.1v-7.2h-1.9v-0.9h4.9V95.3z"/>
	<path class="st1" d="M438.4,102.6h-1.1v-8.1h1.1V102.6z"/>
	<path class="st1" d="M446.5,100.3c0,0.7-0.2,1.3-0.7,1.7c-0.5,0.4-1.1,0.6-1.9,0.6c-0.8,0-1.4-0.2-1.9-0.7c-0.4-0.4-0.7-1-0.7-1.7
		V100h1.1v0.3c0,0.5,0.1,0.8,0.4,1.1c0.3,0.3,0.6,0.4,1,0.4c0.5,0,0.9-0.1,1.1-0.4c0.2-0.3,0.4-0.6,0.4-1c0-0.3-0.1-0.6-0.4-0.9
		c-0.3-0.3-0.7-0.5-1.2-0.7c-0.8-0.3-1.3-0.6-1.6-1s-0.5-0.8-0.5-1.2c0-0.7,0.2-1.2,0.7-1.6c0.5-0.4,1-0.6,1.6-0.6
		c0.8,0,1.4,0.2,1.8,0.7c0.4,0.5,0.5,1,0.5,1.6h-1.1c0-0.3-0.1-0.7-0.3-1s-0.5-0.4-1-0.4c-0.4,0-0.7,0.1-0.9,0.3
		c-0.2,0.2-0.3,0.5-0.3,0.8c0,0.3,0.1,0.5,0.3,0.7s0.6,0.5,1.4,0.7c0.7,0.3,1.2,0.6,1.6,1C446.3,99.3,446.5,99.8,446.5,100.3z"/>
	<path class="st1" d="M452.5,95.3h-1.9v7.2h-1.1v-7.2h-1.9v-0.9h4.9V95.3z"/>
	<path class="st1" d="M458.6,100.2c0,0.8-0.2,1.4-0.6,1.8c-0.4,0.4-1,0.7-1.9,0.7c-0.9,0-1.5-0.2-1.9-0.7c-0.4-0.4-0.6-1-0.6-1.8
		v-5.8h1.1v5.8c0,0.5,0.1,0.9,0.4,1.2c0.3,0.3,0.6,0.4,1,0.4s0.7-0.1,1-0.4c0.3-0.3,0.4-0.6,0.4-1.2v-5.8h1.1V100.2z"/>
	<path class="st1" d="M464.6,102.6h-1.2l-2.6-5.9h0v5.9h-1.1v-8.1h1.2l2.6,5.9h0v-5.9h1.1V102.6z"/>
	<path class="st1" d="M468.8,102.6h-1.1v-8.1h1.1V102.6z"/>
	<path class="st1" d="M477.2,94.4l-2.4,8.2h-1l-2.4-8.2h1.1l1.7,6.2h0.1l1.7-6.2H477.2z"/>
	<path class="st1" d="M483,102.6h-4.8v-8.1h4.6v0.9h-3.5v2.5h3.2v0.9h-3.2v2.9h3.8V102.6z"/>
	<path class="st1" d="M489.3,102.6h-1.1l-1.7-3.5h-1.2v3.5h-1.1v-8.1h2.4c0.8,0,1.4,0.2,1.9,0.5c0.5,0.4,0.7,1,0.7,1.8
		c0,0.6-0.2,1.1-0.5,1.5c-0.3,0.3-0.7,0.6-1.1,0.7L489.3,102.6z M487.9,96.8c0-0.4-0.1-0.8-0.4-1s-0.7-0.4-1.3-0.4h-1v2.8h1.3
		c0.4,0,0.7-0.1,1-0.3C487.8,97.6,487.9,97.3,487.9,96.8z"/>
	<path class="st1" d="M495.2,100.3c0,0.7-0.2,1.3-0.7,1.7c-0.5,0.4-1.1,0.6-1.9,0.6c-0.8,0-1.4-0.2-1.9-0.7c-0.4-0.4-0.7-1-0.7-1.7
		V100h1.1v0.3c0,0.5,0.1,0.8,0.4,1.1c0.3,0.3,0.6,0.4,1,0.4c0.5,0,0.9-0.1,1.1-0.4c0.2-0.3,0.4-0.6,0.4-1c0-0.3-0.1-0.6-0.4-0.9
		c-0.3-0.3-0.7-0.5-1.2-0.7c-0.8-0.3-1.3-0.6-1.6-1s-0.5-0.8-0.5-1.2c0-0.7,0.2-1.2,0.7-1.6c0.5-0.4,1-0.6,1.6-0.6
		c0.8,0,1.4,0.2,1.8,0.7c0.4,0.5,0.5,1,0.5,1.6h-1.1c0-0.3-0.1-0.7-0.3-1s-0.5-0.4-1-0.4c-0.4,0-0.7,0.1-0.9,0.3
		c-0.2,0.2-0.3,0.5-0.3,0.8c0,0.3,0.1,0.5,0.3,0.7s0.6,0.5,1.4,0.7c0.7,0.3,1.2,0.6,1.6,1C495,99.3,495.2,99.8,495.2,100.3z"/>
	<path class="st1" d="M499.3,102.6h-1.1v-8.1h1.1V102.6z"/>
	<path class="st1" d="M507.2,95.3h-1.9v7.2h-1.1v-7.2h-1.9v-0.9h4.9V95.3z"/>
	<path class="st1" d="M513.7,94.4l-2.2,4.5v3.7h-1.1v-3.7l-2.2-4.5h1.1l1.7,3.5h0l1.7-3.5H513.7z"/>
</g>
<g>
	<path class="st1" d="M195.9,121.7c0,1.5-0.4,2.6-1.2,3.5c-0.8,0.9-2,1.3-3.6,1.3c-1.7,0-2.9-0.4-3.6-1.3c-0.8-0.9-1.1-2-1.1-3.5
		v-11.1h2.1v11.1c0,1,0.2,1.8,0.7,2.3c0.5,0.5,1.1,0.7,1.9,0.7c0.8,0,1.4-0.2,1.9-0.7c0.5-0.5,0.7-1.3,0.7-2.3v-11.1h2.1V121.7z"/>
	<path class="st1" d="M207.5,126.3h-2.3l-5.1-11.4h-0.1v11.4H198v-15.7h2.3l5.1,11.4h0.1v-11.4h2.1V126.3z"/>
	<path class="st1" d="M215.6,126.3h-2.1v-15.7h2.1V126.3z"/>
	<path class="st1" d="M231.1,112.4h-3.7v14h-2.1v-14h-3.7v-1.7h9.5V112.4z"/>
	<path class="st1" d="M243.1,126.3h-9.4v-15.7h8.9v1.7h-6.8v4.9h6.3v1.7h-6.3v5.6h7.3V126.3z"/>
	<path class="st1" d="M254.9,118.5c0,2.8-0.6,4.8-1.8,6c-1.2,1.2-2.8,1.8-4.8,1.8h-3.1v-15.7h3.1c2.3,0,3.9,0.6,5,1.8
		C254.4,113.7,254.9,115.7,254.9,118.5z M252.7,118.5c0-2.3-0.4-3.9-1.1-4.8c-0.7-0.9-1.8-1.4-3.3-1.4h-1v12.2h1
		c1.5,0,2.6-0.4,3.3-1.3C252.3,122.4,252.7,120.8,252.7,118.5z"/>
	<path class="st1" d="M274.5,126.3h-2.1v-15.7h2.1V126.3z"/>
	<path class="st1" d="M290,126.3h-2.3l-5.1-11.4h-0.1v11.4h-2.1v-15.7h2.3l5.1,11.4h0.1v-11.4h2.1V126.3z"/>
	<path class="st1" d="M301.7,112.4h-3.7v14H296v-14h-3.7v-1.7h9.5V112.4z"/>
	<path class="st1" d="M313.7,126.3h-9.4v-15.7h8.9v1.7h-6.8v4.9h6.3v1.7h-6.3v5.6h7.3V126.3z"/>
	<path class="st1" d="M325.9,126.3h-2.2l-3.3-6.8h-2.4v6.8h-2.1v-15.7h4.6c1.5,0,2.7,0.4,3.6,1.1c0.9,0.7,1.4,1.9,1.4,3.5
		c0,1.2-0.3,2.2-0.9,2.9c-0.6,0.7-1.3,1.1-2.1,1.3L325.9,126.3z M323.3,115.1c0-0.9-0.3-1.5-0.8-2c-0.5-0.5-1.4-0.7-2.5-0.7h-2v5.4
		h2.6c0.7,0,1.4-0.2,1.9-0.6C323,116.8,323.3,116.1,323.3,115.1z"/>
	<path class="st1" d="M337.1,126.3h-2.3l-5.1-11.4h-0.1v11.4h-2.1v-15.7h2.3l5.1,11.4h0.1v-11.4h2.1V126.3z"/>
	<path class="st1" d="M349.7,126.3h-2.2l-1.3-4.9h-4l-1.3,4.9h-2.2l4.6-15.9h1.8L349.7,126.3z M345.7,119.7l-1.5-5.6h-0.2l-1.5,5.6
		H345.7z"/>
	<path class="st1" d="M360.6,112.4h-3.7v14h-2.1v-14h-3.7v-1.7h9.5V112.4z"/>
	<path class="st1" d="M368.7,126.3h-2.1v-15.7h2.1V126.3z"/>
	<path class="st1" d="M384.5,118.4c0,2.9-0.4,5-1.3,6.2c-0.9,1.3-2.1,1.9-3.7,1.9c-1.6,0-2.9-0.6-3.8-1.9c-0.9-1.3-1.4-3.3-1.4-6.2
		c0-2.9,0.5-4.9,1.4-6.2c0.9-1.2,2.2-1.8,3.8-1.8c1.6,0,2.8,0.6,3.7,1.8C384.1,113.5,384.5,115.5,384.5,118.4z M382.3,118.4
		c0-2.6-0.3-4.3-0.8-5.1c-0.6-0.8-1.2-1.2-2-1.2c-0.8,0-1.5,0.4-2.1,1.2c-0.6,0.8-0.9,2.5-0.9,5.1s0.3,4.3,0.9,5.1s1.3,1.2,2.1,1.2
		c0.8,0,1.5-0.4,2-1.2C382.1,122.7,382.3,121,382.3,118.4z"/>
	<path class="st1" d="M396,126.3h-2.3l-5.1-11.4h-0.1v11.4h-2.1v-15.7h2.3l5.1,11.4h0.1v-11.4h2.1V126.3z"/>
	<path class="st1" d="M408.6,126.3h-2.2l-1.3-4.9h-4l-1.3,4.9h-2.2l4.6-15.9h1.8L408.6,126.3z M404.6,119.7l-1.5-5.6h-0.2l-1.5,5.6
		H404.6z"/>
	<path class="st1" d="M419.7,126.3h-9.6v-15.7h2.1v14h7.5V126.3z"/>
	<path class="st1" d="M443.5,120.1c-0.1,2.3-0.6,4-1.5,5c-0.9,1-2,1.5-3.3,1.5c-1.5,0-2.7-0.6-3.8-1.8c-1-1.2-1.6-3.1-1.6-5.8
		c0-2.9,0.5-5,1.5-6.4c1-1.4,2.3-2.1,3.9-2.1c1.3,0,2.5,0.5,3.4,1.5c0.9,1,1.3,2.4,1.2,4.3h-2c0-1.3-0.2-2.4-0.6-3
		c-0.4-0.7-1.1-1-1.9-1c-1,0-1.8,0.5-2.3,1.5c-0.6,1-0.9,2.7-0.9,5.1c0,2.2,0.3,3.8,0.9,4.6c0.6,0.9,1.3,1.3,2.3,1.3
		c0.7,0,1.3-0.3,1.8-1c0.6-0.6,0.8-1.9,0.8-3.7H443.5z"/>
	<path class="st1" d="M455.2,118.4c0,2.9-0.4,5-1.3,6.2c-0.9,1.3-2.1,1.9-3.7,1.9c-1.6,0-2.9-0.6-3.8-1.9c-0.9-1.3-1.4-3.3-1.4-6.2
		c0-2.9,0.5-4.9,1.4-6.2c0.9-1.2,2.2-1.8,3.8-1.8c1.6,0,2.8,0.6,3.7,1.8C454.8,113.5,455.2,115.5,455.2,118.4z M453,118.4
		c0-2.6-0.3-4.3-0.8-5.1c-0.6-0.8-1.2-1.2-2-1.2c-0.8,0-1.5,0.4-2.1,1.2c-0.6,0.8-0.9,2.5-0.9,5.1s0.3,4.3,0.9,5.1s1.3,1.2,2.1,1.2
		c0.8,0,1.5-0.4,2-1.2C452.7,122.7,453,121,453,118.4z"/>
	<path class="st1" d="M466.8,126.3h-9.6v-15.7h2.1v14h7.5V126.3z"/>
	<path class="st1" d="M478.6,126.3H469v-15.7h2.1v14h7.5V126.3z"/>
	<path class="st1" d="M490.3,126.3H481v-15.7h8.9v1.7h-6.8v4.9h6.3v1.7h-6.3v5.6h7.3V126.3z"/>
	<path class="st1" d="M501.9,126.5h-1.6l-0.3-1.3c-0.2,0.4-0.6,0.7-1.1,0.9c-0.5,0.2-1.1,0.4-1.7,0.4c-1.3,0-2.4-0.6-3.5-1.8
		c-1-1.2-1.5-3.1-1.5-5.8c0-2.9,0.5-5,1.4-6.4c0.9-1.4,2.2-2.1,3.8-2.1c1.4,0,2.5,0.5,3.3,1.6c0.8,1,1.2,2.4,1.2,4h-2
		c0-1.3-0.2-2.3-0.6-2.9c-0.4-0.6-1-1-1.8-1c-1,0-1.7,0.5-2.2,1.5c-0.5,1-0.7,2.7-0.7,5.1c0,2.3,0.3,3.8,0.9,4.7
		c0.6,0.9,1.3,1.3,2.1,1.3c0.8,0,1.4-0.3,1.9-0.9c0.5-0.6,0.7-1.5,0.7-2.7v-1h-2.9v-1.7h4.7V126.5z"/>
	<path class="st1" d="M513.9,126.3h-9.4v-15.7h8.9v1.7h-6.8v4.9h6.3v1.7h-6.3v5.6h7.3V126.3z"/>
</g>
</svg>
