<?xml version="1.0" encoding="utf-8"?>
<!-- Generator: Adobe Illustrator 21.0.0, SVG Export Plug-In . SVG Version: 6.00 Build 0)  -->
<svg version="1.1" id="Layer_1" xmlns="http://www.w3.org/2000/svg" xmlns:xlink="http://www.w3.org/1999/xlink" x="0px" y="0px"
	 viewBox="0 0 719.6 167.8" style="enable-background:new 0 0 719.6 167.8;" xml:space="preserve">
<style type="text/css">
	.st0{fill:#777777;}
</style>
<g>
	<path class="st0" d="M126.9,83.3c0,28.9-17.1,43-45.7,43c-28.9,0-45.6-13.8-45.6-43V16.7h23.5v66.6c0,11.7,3,23.2,22,23.2
		c16.8,0,22.2-7.2,22.2-23.2V16.7h23.5V83.3z"/>
	<path class="st0" d="M144.9,46.3h20.2V57h0.5c5.4-8.8,14.7-12.9,23.7-12.9c22.6,0,28.3,12.7,28.3,31.9v47.7h-21.3V80
		c0-12.7-3.6-19-13.6-19c-11.5,0-16.5,6.5-16.5,22.2v40.6h-21.3V46.3z"/>
	<path class="st0" d="M250.3,98.6c0,9.2,8.1,13,16.3,13c6,0,13.9-2.4,13.9-9.9c0-6.5-9-8.8-24.1-12c-12.4-2.8-24.6-6.9-24.6-20.7
		c0-19.8,17.1-24.9,33.7-24.9c16.8,0,32.5,5.7,34.2,24.7h-20.2c-0.6-8.2-6.9-10.5-14.5-10.5c-4.8,0-11.8,0.8-11.8,7.2
		c0,7.6,12.1,8.7,24.1,11.5c12.5,2.8,24.6,7.3,24.6,21.7c0,20.4-17.8,27-35.4,27c-18,0-35.7-6.8-36.4-27.3H250.3z"/>
	<path class="st0" d="M314.4,46.3h20.2v9.9h0.3c5.3-8.4,13.5-12,23.1-12c24.3,0,35.2,19.6,35.2,41.7c0,20.7-11.2,40-34,40
		c-9.5,0-18-4-23.2-11.7h-0.3v36.9h-21.3V46.3z M372,85.2c0-12.4-5-25-18.6-25c-13.9,0-18.4,12.4-18.4,25c0,12.6,4.8,24.6,18.6,24.6
		C367.5,109.8,372,97.8,372,85.2z"/>
	<path class="st0" d="M406.6,16.7h21.3v107.1h-21.3V16.7z"/>
	<path class="st0" d="M443.8,70.1c1.2-19.8,19-25.9,36.4-25.9c15.4,0,34,3.5,34,22v40.3c0,7.1,0.8,14.1,2.7,17.3h-21.6
		c-0.8-2.4-1.4-4.9-1.5-7.5c-6.8,7-16.5,9.6-26.1,9.6c-14.8,0-26.4-7.3-26.4-23.2c0.3-35.2,52.5-16.3,51.6-33.7
		c0-9-6.3-10.5-13.8-10.5c-8.3,0-13.3,3.3-14.1,11.7H443.8z M493,85.8c-3.6,3.1-11.1,3.3-17.7,4.5c-6.6,1.2-12.6,3.6-12.6,11.4
		c0,7.8,6.2,9.9,13,9.9c16.6,0,17.2-13,17.2-17.8V85.8z"/>
	<path class="st0" d="M547.3,98.6c0,9.2,8.1,13,16.3,13c6,0,13.9-2.4,13.9-9.9c0-6.5-9-8.8-24.1-12c-12.5-2.8-24.6-6.9-24.6-20.7
		c0-19.8,17.1-24.9,33.7-24.9c16.8,0,32.5,5.7,34.2,24.7h-20.2c-0.6-8.2-6.9-10.5-14.5-10.5c-4.8,0-11.8,0.8-11.8,7.2
		c0,7.6,12.1,8.7,24.1,11.5c12.5,2.8,24.6,7.3,24.6,21.7c0,20.4-17.8,27-35.4,27c-18,0-35.7-6.8-36.4-27.3H547.3z"/>
	<path class="st0" d="M611.4,16.7h21.3V57h0.5c5.4-8.8,14.7-12.9,22.6-12.9c22.6,0,28.3,12.7,28.3,31.9v47.7h-21.3V80
		c0-12.7-3.6-19-13.6-19c-11.5,0-16.5,6.5-16.5,22.2v40.6h-21.3V16.7z"/>
</g>
</svg>
