<?xml version="1.0" encoding="utf-8"?>
<!-- Generator: Adobe Illustrator 21.0.0, SVG Export Plug-In . SVG Version: 6.00 Build 0)  -->
<svg version="1.1" id="Layer_1" xmlns="http://www.w3.org/2000/svg" xmlns:xlink="http://www.w3.org/1999/xlink" x="0px" y="0px"
	 viewBox="0 0 1200 300" style="enable-background:new 0 0 1200 300;" xml:space="preserve">
<style type="text/css">
	.st0{fill-rule:evenodd;clip-rule:evenodd;}
</style>
<g id="Rectangle_1">
	<g>
		<rect x="0.7" y="2" class="st0" width="16.9" height="298"/>
	</g>
</g>
<g id="Rectangle_1_copy">
	<g>
		<rect x="34.5" y="2" class="st0" width="16.9" height="298"/>
	</g>
</g>
<g id="Rectangle_1_copy_2">
	<g>
		<rect x="68.3" y="91.4" class="st0" width="16.9" height="208.6"/>
	</g>
</g>
<g id="Rectangle_1_copy_3">
	<g>
		<rect x="102" y="91.4" class="st0" width="16.9" height="208.6"/>
	</g>
</g>
<g id="Rectangle_1_copy_4">
	<g>
		<rect x="135.8" y="69" class="st0" width="16.9" height="201.2"/>
	</g>
</g>
<g id="Rectangle_1_copy_5">
	<g>
		<rect x="169.6" y="69.5" class="st0" width="16.9" height="191.7"/>
	</g>
</g>
<g id="Rectangle_1_copy_9">
	<g>
		<rect x="304.7" y="2" class="st0" width="16.9" height="298"/>
	</g>
</g>
<g id="Rectangle_1_copy_10">
	<g>
		<rect x="338.5" y="2" class="st0" width="16.9" height="298"/>
	</g>
</g>
<g id="Rectangle_1_copy_11">
	<g>
		<rect x="372.3" y="37.7" class="st0" width="16.9" height="263.3"/>
	</g>
</g>
<g id="Rectangle_1_copy_12">
	<g>
		<rect x="406.1" y="37.7" class="st0" width="16.9" height="263.3"/>
	</g>
</g>
<g id="Rectangle_1_copy_13">
	<g>
		<rect x="439.8" y="37.7" class="st0" width="16.9" height="263.3"/>
	</g>
</g>
<g id="Rectangle_1_copy_14">
	<g>
		<rect x="473.6" y="37.7" class="st0" width="16.9" height="263.3"/>
	</g>
</g>
<g id="Rectangle_1_copy_15">
	<g>
		<rect x="507.4" y="37.7" class="st0" width="16.9" height="263.3"/>
	</g>
</g>
<g id="Rectangle_1_copy_16">
	<g>
		<rect x="0.7" y="2" class="st0" width="16.9" height="298"/>
	</g>
</g>
<g id="Rectangle_1_copy_17">
	<g>
		<rect x="34.5" y="2" class="st0" width="16.9" height="298"/>
	</g>
</g>
<g id="Rectangle_1_copy_18">
	<g>
		<rect x="68.3" y="91.4" class="st0" width="16.9" height="208.6"/>
	</g>
</g>
<g id="Rectangle_1_copy_19">
	<g>
		<rect x="102" y="91.4" class="st0" width="16.9" height="208.6"/>
	</g>
</g>
<g id="Rectangle_1_copy_48">
	<g>
		<rect x="1081.6" y="69.5" class="st0" width="16.9" height="231.5"/>
	</g>
</g>
<g id="Rectangle_1_copy_50">
	<g>
		<rect x="1149.2" y="69.5" class="st0" width="16.9" height="231.5"/>
	</g>
</g>
<g id="Rectangle_1_copy_53">
	<g>
		<rect x="1115.4" y="151" class="st0" width="16.9" height="150"/>
	</g>
</g>
<g id="Rectangle_1_copy_54">
	<g>
		<rect x="68.3" y="91.4" class="st0" width="16.9" height="208.6"/>
	</g>
</g>
<g id="Rectangle_1_copy_55">
	<g>
		<rect x="1183" y="151" class="st0" width="16.9" height="150"/>
	</g>
</g>
<g id="Rectangle_1_copy_20">
	<g>
		<rect x="135.8" y="69.5" class="st0" width="16.9" height="201.7"/>
	</g>
</g>
<g id="Rectangle_1_copy_22">
	<g>
		<rect x="203.4" y="2" class="st0" width="16.9" height="249.4"/>
	</g>
</g>
<g id="Rectangle_1_copy_23">
	<g>
		<rect x="237.2" y="2" class="st0" width="16.9" height="239.4"/>
	</g>
</g>
<g id="Rectangle_1_copy_24">
	<g>
		<rect x="270.9" y="2" class="st0" width="16.9" height="229.5"/>
	</g>
</g>
<g id="Rectangle_1_copy_25">
	<g>
		<rect x="304.7" y="2" class="st0" width="16.9" height="298"/>
	</g>
</g>
<g id="Rectangle_1_copy_26">
	<g>
		<rect x="338.5" y="2" class="st0" width="16.9" height="298"/>
	</g>
</g>
<g id="Rectangle_1_copy_27">
	<g>
		<rect x="372.3" y="37.7" class="st0" width="16.9" height="263.3"/>
	</g>
</g>
<g id="Rectangle_1_copy_28">
	<g>
		<rect x="406.1" y="37.7" class="st0" width="16.9" height="263.3"/>
	</g>
</g>
<g id="Rectangle_1_copy_29">
	<g>
		<rect x="439.8" y="37.7" class="st0" width="16.9" height="263.3"/>
	</g>
</g>
<g id="Rectangle_1_copy_30">
	<g>
		<rect x="473.6" y="37.7" class="st0" width="16.9" height="263.3"/>
	</g>
</g>
<g id="Rectangle_1_copy_31">
	<g>
		<rect x="507.4" y="37.7" class="st0" width="16.9" height="263.3"/>
	</g>
</g>
<g id="Rectangle_1_copy_32">
	<g>
		<rect x="541.2" y="2" class="st0" width="50.7" height="198.7"/>
	</g>
</g>
<g id="Rectangle_1_copy_34">
	<g>
		<rect x="608.7" y="2" class="st0" width="16.9" height="298"/>
	</g>
</g>
<g id="Rectangle_1_copy_35">
	<g>
		<rect x="642.5" y="2" class="st0" width="50.7" height="198.7"/>
	</g>
</g>
<g id="Rectangle_1_copy_33">
	<g>
		<rect x="541.2" y="283.1" class="st0" width="50.7" height="16.9"/>
	</g>
</g>
<g id="Rectangle_1_copy_36">
	<g>
		<rect x="642.5" y="283.1" class="st0" width="50.7" height="16.9"/>
	</g>
</g>
<g id="Rectangle_1_copy_37">
	<g>
		<rect x="710.1" y="2" class="st0" width="16.9" height="298"/>
	</g>
</g>
<g id="Rectangle_1_copy_38">
	<g>
		<rect x="743.8" y="2" class="st0" width="16.9" height="298"/>
	</g>
</g>
<g id="Rectangle_1_copy_39">
	<g>
		<rect x="777.6" y="2" class="st0" width="16.9" height="298"/>
	</g>
</g>
<g id="Rectangle_1_copy_40">
	<g>
		<rect x="811.4" y="2" class="st0" width="16.9" height="298"/>
	</g>
</g>
<g id="Rectangle_1_copy_41">
	<g>
		<rect x="845.2" y="2" class="st0" width="16.9" height="298"/>
	</g>
</g>
<g id="Rectangle_1_copy_42">
	<g>
		<rect x="879" y="69.5" class="st0" width="16.9" height="232.5"/>
	</g>
</g>
<g id="Rectangle_1_copy_43">
	<g>
		<rect x="912.7" y="151" class="st0" width="16.9" height="150"/>
	</g>
</g>
<g id="Rectangle_1_copy_44">
	<g>
		<rect x="946.5" y="69.5" class="st0" width="16.9" height="231.5"/>
	</g>
</g>
<g id="Rectangle_1_copy_45">
	<g>
		<rect x="980.3" y="151" class="st0" width="16.9" height="150"/>
	</g>
</g>
<g id="Rectangle_1_copy_46">
	<g>
		<rect x="1014.1" y="69.5" class="st0" width="16.9" height="231.5"/>
	</g>
</g>
<g id="Rectangle_1_copy_47">
	<g>
		<rect x="1047.9" y="151" class="st0" width="16.9" height="150"/>
	</g>
</g>
<g>
	<path d="M928.1,38.9c0,15.7-9.3,23.3-24.9,23.3c-15.7,0-24.8-7.5-24.8-23.3V2.8h12.8v36.1c0,6.3,1.6,12.6,12,12.6
		c9.1,0,12.1-3.9,12.1-12.6V2.8h12.8V38.9z"/>
	<path d="M939.1,2.8h12.8v58.1h-12.8V2.8z"/>
	<path d="M1002,22.3c-0.9-5.8-6.4-10.2-12.7-10.2c-11.5,0-15.8,9.8-15.8,19.9c0,9.7,4.3,19.4,15.8,19.4c7.8,0,12.2-5.3,13.2-13h12.4
		c-1.3,14.6-11.3,23.8-25.6,23.8c-17.9,0-28.6-13.4-28.6-30.2c0-17.2,10.7-30.7,28.6-30.7c12.7,0,23.6,7.5,25.1,20.9H1002z"/>
	<path d="M1023.6,2.8h12.8v22.3h23.6V2.8h12.8v58.1H1060V35.8h-23.6v25.1h-12.8V2.8z"/>
	<path d="M1122.9,22.3c-0.9-5.8-6.4-10.2-12.7-10.2c-11.5,0-15.8,9.8-15.8,19.9c0,9.7,4.3,19.4,15.8,19.4c7.8,0,12.2-5.3,13.2-13
		h12.4c-1.3,14.6-11.3,23.8-25.6,23.8c-17.9,0-28.6-13.4-28.6-30.2c0-17.2,10.7-30.7,28.6-30.7c12.7,0,23.6,7.5,25.1,20.9H1122.9z"
		/>
	<path d="M1183.3,22.3c-0.9-5.8-6.4-10.2-12.7-10.2c-11.5,0-15.8,9.8-15.8,19.9c0,9.7,4.3,19.4,15.8,19.4c7.8,0,12.2-5.3,13.2-13
		h12.4c-1.3,14.6-11.3,23.8-25.6,23.8c-17.9,0-28.6-13.4-28.6-30.2c0-17.2,10.7-30.7,28.6-30.7c12.7,0,23.6,7.5,25.1,20.9H1183.3z"
		/>
</g>
</svg>
