<?xml version="1.0" encoding="utf-8"?>
<!-- Generator: Adobe Illustrator 21.0.0, SVG Export Plug-In . SVG Version: 6.00 Build 0)  -->
<svg version="1.1" id="Layer_1" xmlns="http://www.w3.org/2000/svg" xmlns:xlink="http://www.w3.org/1999/xlink" x="0px" y="0px"
	 viewBox="0 0 100 100" style="enable-background:new 0 0 100 100;" xml:space="preserve">
<style type="text/css">
	.st0{fill:#333333;}
</style>
<path class="st0" d="M79.3,46.3c-1.6,0-2.9,1.3-2.9,2.9v20.5L44,87.7V47l14.6-8.1c1.4-0.8,1.9-2.5,1.1-3.9c-0.8-1.4-2.5-1.9-3.9-1.1
	l-14.7,8.2l-32-17.7L41.1,9l14.3,6.9c1.4,0.7,3.1,0.1,3.8-1.3c0.7-1.4,0.1-3.1-1.3-3.8L42.3,3.2c-0.8-0.4-1.7-0.4-2.5,0L1.6,21.6
	c0,0,0,0,0,0c-0.1,0.1-0.2,0.1-0.3,0.2c0,0,0,0,0,0C1.2,21.8,1.1,21.9,1,22c0,0,0,0-0.1,0c-0.1,0.1-0.2,0.2-0.3,0.3c0,0,0,0,0,0
	c-0.1,0.1-0.1,0.2-0.2,0.3c0,0,0,0.1-0.1,0.1c0,0,0,0.1-0.1,0.1c0,0.1-0.1,0.1-0.1,0.2c0,0,0,0,0,0.1c0,0.1-0.1,0.2-0.1,0.3
	c0,0,0,0,0,0.1c0,0.1-0.1,0.2-0.1,0.3c0,0,0,0,0,0.1c0,0.1,0,0.2,0,0.4c0,0,0,0,0,0v47.2c0,1,0.6,2,1.5,2.5l38.2,21.2c0,0,0,0,0,0
	c0.1,0.1,0.2,0.1,0.3,0.2c0,0,0,0,0.1,0c0.1,0,0.2,0.1,0.3,0.1c0,0,0.1,0,0.1,0c0.1,0,0.2,0,0.3,0c0,0,0.1,0,0.1,0
	c0.1,0,0.2,0,0.3,0s0.2,0,0.3,0c0,0,0.1,0,0.1,0c0.1,0,0.2,0,0.3,0c0,0,0.1,0,0.1,0c0.1,0,0.2-0.1,0.3-0.1c0,0,0,0,0.1,0
	c0.1,0,0.2-0.1,0.3-0.2c0,0,0,0,0,0l38.2-21.2c0.9-0.5,1.5-1.5,1.5-2.5V49.2C82.2,47.6,80.9,46.3,79.3,46.3z M38.2,87.7l-32.5-18V29
	l32.5,18V87.7z"/>
<path class="st0" d="M97.8,24.8c0-10.2-8.3-18.5-18.5-18.5c-10.2,0-18.5,8.3-18.5,18.5c0,7.8,4.8,14.5,11.7,17.2l4.7-11.8
	c-2.1-0.8-3.7-2.9-3.7-5.4c0-3.2,2.6-5.8,5.8-5.8c3.2,0,5.8,2.6,5.8,5.8c0,2.4-1.5,4.5-3.7,5.4L86.1,42C93,39.3,97.8,32.6,97.8,24.8
	z"/>
</svg>
