<?xml version="1.0" encoding="utf-8"?>
<!-- Generator: Adobe Illustrator 21.0.0, SVG Export Plug-In . SVG Version: 6.00 Build 0)  -->
<svg version="1.1" id="Layer_1" xmlns="http://www.w3.org/2000/svg" xmlns:xlink="http://www.w3.org/1999/xlink" x="0px" y="0px"
	 viewBox="0 0 270 270" style="enable-background:new 0 0 270 270;" xml:space="preserve">
<style type="text/css">
	.st0{fill:#333333;}
</style>
<path class="st0" d="M200.7,216.4H57.3l0,20l-18.5-20H13.5c-6.6,0-12-5.4-12-12V80.9c0-6.6,5.4-12,12-12h34.9c0,0,0,102.5,0,110.2
	s1.3,11.1,10.5,11.1s133.1-0.3,133.1-0.3L200.7,216.4z"/>
<path class="st0" d="M256.5,181.1h-31.9l-17.1,21.3l-0.4-21.3H69.3c-6.6,0-12-5.4-12-12V45.6c0-6.6,5.4-12,12-12h187.3
	c6.6,0,12,5.4,12,12v123.5C268.5,175.7,263.1,181.1,256.5,181.1z"/>
</svg>
