<?xml version="1.0" encoding="utf-8"?>
<!-- Generator: Adobe Illustrator 21.0.0, SVG Export Plug-In . SVG Version: 6.00 Build 0)  -->
<svg version="1.1" id="Layer_1" xmlns="http://www.w3.org/2000/svg" xmlns:xlink="http://www.w3.org/1999/xlink" x="0px" y="0px"
	 viewBox="0 0 224 224" style="enable-background:new 0 0 224 224;" xml:space="preserve">
<style type="text/css">
	.st0{fill:#333333;}
	.st1{fill:#FFFFFF;stroke:#333333;stroke-width:10;stroke-miterlimit:10;}
	.st2{fill:#FFFFFF;}
</style>
<circle class="st0" cx="74.7" cy="74.8" r="67.3"/>
<path class="st1" d="M204.6,217.5h-98.8c-6.6,0-12-5.4-12-12v-98.8c0-6.6,5.4-12,12-12h98.8c6.6,0,12,5.4,12,12v98.8
	C216.6,212.1,211.2,217.5,204.6,217.5z"/>
<g>
	<path class="st2" d="M107.8,56.6c-4.7,13.6-11.1,24.9-19.3,34.2c10,7.2,22.1,12.5,36.6,15.7c-3.3,3.2-7.6,9.6-9.8,13.6
		c-15.4-4-27.9-10.2-38.2-18.5c-10.9,8.6-24.1,14.9-39.9,19.3c-1.6-3.5-6-10.3-8.8-13.7c15.3-3.4,27.8-8.6,37.9-16
		C58,81.6,51.6,70.1,46.4,56.6H30.6V42.4h41.2c-1-4-2.8-9.1-4.7-13.1l15.6-4.6c2.5,4.7,5.3,11,6.3,15.2l-8.1,2.5h42v14.2H107.8z
		 M61.5,56.6c3.9,9.2,9.2,17.4,15.9,24.5c5.9-6.8,10.6-14.9,14-24.5H61.5z"/>
</g>
<g>
	<path class="st0" d="M148.9,118.1H165l26.7,71.4h-16.3l-5.4-15.9h-26.7l-5.6,15.9h-15.9L148.9,118.1z M147.4,161.9h18.5l-9-26.2
		h-0.2L147.4,161.9z"/>
</g>
</svg>
