<?xml version="1.0" encoding="utf-8"?>
<!-- Generator: Adobe Illustrator 21.0.0, SVG Export Plug-In . SVG Version: 6.00 Build 0)  -->
<svg version="1.1" id="Layer_1" xmlns="http://www.w3.org/2000/svg" xmlns:xlink="http://www.w3.org/1999/xlink" x="0px" y="0px"
	 viewBox="0 0 703.5 184.1" style="enable-background:new 0 0 703.5 184.1;" xml:space="preserve">
<style type="text/css">
	.st0{fill:#787878;}
</style>
<path class="st0" d="M132.4,33v16.4h-31.9v87.6H81.4V49.3H49.4V33H132.4z"/>
<path class="st0" d="M206.6,58.5c-8.1,29.8-17.5,56.8-28.1,81c-2,4.5-4.1,8.3-6.2,11.6c-2.1,3.2-4.5,5.8-7.1,7.9
	c-2.6,2.1-5.5,3.6-8.7,4.6c-3.2,0.9-6.9,1.4-11.1,1.4c-2.8,0-5.6-0.3-8.3-0.9c-2.8-0.6-4.8-1.3-6.2-2l3.3-14.5
	c3.6,1.4,7.2,2.1,10.7,2.1c4.7,0,8.4-1.1,11.1-3.4s5-5.7,7-10.4c-5.7-11-11.2-23-16.5-36c-5.3-13-10-26.8-14.1-41.4h19.4
	c1,4.2,2.2,8.8,3.7,13.7c1.5,4.9,3,9.9,4.7,14.9c1.7,5.1,3.5,10.1,5.4,15.1c1.9,5,3.8,9.7,5.7,14c3.2-8.9,6.2-18.4,9-28.4
	c2.8-10.1,5.3-19.8,7.6-29.2H206.6z"/>
<path class="st0" d="M291.1,97.8c0,6-0.8,11.5-2.3,16.5c-1.6,5-3.8,9.3-6.7,12.9c-2.9,3.6-6.5,6.4-10.9,8.4c-4.4,2-9.3,3-14.8,3
	c-3.7,0-7.1-0.5-10.2-1.4c-3.1-0.9-5.7-1.9-7.6-3v30.5h-18.2V61c3.7-1,8.3-2,13.7-2.9c5.4-0.9,11.1-1.4,17.1-1.4
	c6.2,0,11.7,1,16.7,2.9c4.9,1.9,9.1,4.6,12.5,8.2c3.4,3.6,6.1,7.9,7.9,12.9C290.1,85.8,291.1,91.5,291.1,97.8z M272.5,98.1
	c0-8.1-1.8-14.4-5.5-18.9c-3.7-4.5-9.5-6.8-17.6-6.8c-1.7,0-3.5,0.1-5.3,0.2c-1.9,0.1-3.7,0.5-5.5,1v44.8c1.6,1.1,3.7,2.1,6.4,3.1
	c2.6,1,5.5,1.4,8.5,1.4c6.6,0,11.4-2.3,14.5-6.8C270.9,111.7,272.5,105.7,272.5,98.1z"/>
<path class="st0" d="M305.5,98.1c0-6.9,1-12.9,3.1-18.2c2-5.2,4.8-9.5,8.2-13c3.4-3.4,7.3-6,11.7-7.8c4.4-1.7,8.9-2.6,13.5-2.6
	c10.8,0,19.2,3.4,25.3,10c6,6.7,9.1,16.7,9.1,30c0,1,0,2.1-0.1,3.4c-0.1,1.3-0.1,2.4-0.2,3.4h-51.8c0.5,6.3,2.7,11.2,6.7,14.6
	c3.9,3.5,9.7,5.2,17.2,5.2c4.4,0,8.4-0.4,12.1-1.2c3.6-0.8,6.5-1.6,8.6-2.5l2.4,14.8c-1,0.5-2.4,1-4.1,1.6c-1.8,0.6-3.8,1-6,1.5
	s-4.7,0.8-7.3,1.1c-2.6,0.3-5.3,0.5-8,0.5c-6.9,0-12.9-1-18-3.1c-5.1-2-9.3-4.9-12.6-8.5c-3.3-3.6-5.8-8-7.4-12.9
	C306.3,109.4,305.5,104,305.5,98.1z M358.1,90c0-2.5-0.4-4.9-1.1-7.1c-0.7-2.3-1.7-4.2-3.1-5.8c-1.4-1.7-3-2.9-5-3.9
	c-1.9-0.9-4.3-1.4-7-1.4c-2.8,0-5.3,0.5-7.3,1.6c-2.1,1-3.9,2.4-5.3,4.1c-1.5,1.7-2.6,3.7-3.4,5.8c-0.8,2.2-1.4,4.5-1.6,6.8H358.1z"
	/>
<path class="st0" d="M461.8,134.5c-3.6,1.1-8.1,2.1-13.6,3c-5.5,0.9-11.2,1.3-17.2,1.3c-6.2,0-11.8-1-16.6-2.8
	c-4.9-1.9-9.1-4.6-12.5-8.2c-3.4-3.5-6.1-7.8-7.9-12.9c-1.9-5-2.8-10.7-2.8-17c0-6.2,0.8-11.8,2.3-16.9c1.5-5,3.8-9.4,6.8-13
	s6.6-6.4,10.9-8.3c4.3-2,9.2-2.9,14.9-2.9c3.8,0,7.1,0.5,10.1,1.4c2.9,0.9,5.4,1.9,7.5,3V23.5l18.1-3V134.5z M409.7,97.5
	c0,8,1.9,14.3,5.7,18.8c3.8,4.6,9,6.8,15.8,6.8c2.9,0,5.4-0.1,7.4-0.4c2-0.2,3.7-0.5,5-0.8v-45c-1.6-1.1-3.7-2.1-6.4-3.1
	c-2.7-0.9-5.5-1.4-8.5-1.4c-6.6,0-11.4,2.3-14.5,6.8C411.2,83.7,409.7,89.8,409.7,97.5z"/>
<path class="st0" d="M505.3,127c0,3.5-1.2,6.4-3.5,8.5c-2.4,2.2-5.2,3.3-8.5,3.3c-3.4,0-6.3-1.1-8.5-3.3c-2.3-2.2-3.5-5-3.5-8.5
	c0-3.5,1.1-6.4,3.5-8.6c2.3-2.3,5.1-3.4,8.5-3.4c3.3,0,6.1,1.1,8.5,3.4C504.1,120.6,505.3,123.5,505.3,127z"/>
<path class="st0" d="M514.7,164.8c-1.3,0-3.1-0.1-5.5-0.4c-2.3-0.3-4.4-0.7-6.2-1.4l2.4-14.9c2.2,0.7,4.9,1,8,1
	c4.2,0,7.1-1.2,8.8-3.7c1.7-2.5,2.5-6.1,2.5-11V58.5h18.2v76.4c0,10.2-2.4,17.7-7.3,22.6C530.8,162.3,523.8,164.8,514.7,164.8z
	 M544.9,35.5c0,3.4-1.1,6.1-3.3,8.1c-2.2,2-4.8,3-7.8,3c-3.1,0-5.8-1-8-3c-2.2-2-3.3-4.7-3.3-8.1c0-3.5,1.1-6.2,3.3-8.3
	c2.2-2,4.8-3,8-3c3,0,5.6,1,7.8,3C543.8,29.3,544.9,32,544.9,35.5z"/>
<path class="st0" d="M585.7,123.9c4.8,0,8.3-0.6,10.5-1.7c2.2-1.1,3.3-3.1,3.3-5.9c0-2.6-1.2-4.7-3.5-6.4c-2.4-1.7-6.2-3.5-11.6-5.6
	c-3.3-1.2-6.3-2.5-9.1-3.8c-2.8-1.4-5.1-2.9-7.1-4.7c-2-1.8-3.6-4-4.7-6.5c-1.2-2.6-1.7-5.7-1.7-9.4c0-7.2,2.6-12.9,8-17
	c5.3-4.1,12.5-6.2,21.6-6.2c4.6,0,9,0.4,13.2,1.3c4.2,0.9,7.3,1.7,9.5,2.5L610.6,75c-2-0.9-4.6-1.7-7.6-2.5
	c-3.1-0.8-6.7-1.1-10.8-1.1c-3.7,0-6.7,0.6-9,1.9c-2.3,1.3-3.5,3.2-3.5,5.8c0,1.3,0.2,2.5,0.7,3.4c0.5,1,1.2,1.9,2.3,2.8
	c1.1,0.9,2.5,1.7,4.3,2.5c1.8,0.9,4,1.7,6.6,2.6c4.3,1.6,7.9,3.2,10.9,4.7c3,1.6,5.5,3.3,7.4,5.3c1.9,1.9,3.4,4.2,4.3,6.7
	c0.9,2.5,1.4,5.5,1.4,9c0,7.5-2.8,13.2-8.3,17c-5.5,3.8-13.5,5.8-23.8,5.8c-6.9,0-12.5-0.6-16.6-1.7c-4.2-1.1-7.2-2.1-8.9-2.8
	l3.2-15.2c2.7,1.1,5.9,2.2,9.7,3.2C576.6,123.4,580.9,123.9,585.7,123.9z"/>
<path class="st0" d="M637,19.5H654v145.2H637V19.5z"/>
</svg>
